<svg width="242" height="56" viewBox="0 0 242 56" fill="none" xmlns="http://www.w3.org/2000/svg">
<path d="M42 19C37.0374 19 33 23.0374 33 28V31.7287C33 32.6503 33.8073 33.4 34.8 33.4H35.7C35.9387 33.4 36.1676 33.3052 36.3364 33.1364C36.5052 32.9676 36.6 32.7387 36.6 32.5V27.8713C36.6 27.6326 36.5052 27.4037 36.3364 27.2349C36.1676 27.0661 35.9387 26.9713 35.7 26.9713H34.8828C35.3832 23.4883 38.3802 20.8 42 20.8C45.6198 20.8 48.6168 23.4883 49.1172 26.9713H48.3C48.0613 26.9713 47.8324 27.0661 47.6636 27.2349C47.4948 27.4037 47.4 27.6326 47.4 27.8713V33.4C47.4 34.3927 46.5927 35.2 45.6 35.2H43.8V34.3H40.2V37H45.6C47.5854 37 49.2 35.3854 49.2 33.4C50.1927 33.4 51 32.6503 51 31.7287V28C51 23.0374 46.9626 19 42 19Z" fill="#B2B2B2"/>
<path d="M82.768 34.112C82.032 34.112 81.3707 33.984 80.784 33.728C80.208 33.4613 79.7547 33.0987 79.424 32.64C79.0933 32.1707 78.9227 31.632 78.912 31.024H80.464C80.5173 31.5467 80.7307 31.9893 81.104 32.352C81.488 32.704 82.0427 32.88 82.768 32.88C83.4613 32.88 84.0053 32.7093 84.4 32.368C84.8053 32.016 85.008 31.568 85.008 31.024C85.008 30.5973 84.8907 30.2507 84.656 29.984C84.4213 29.7173 84.128 29.5147 83.776 29.376C83.424 29.2373 82.9493 29.088 82.352 28.928C81.616 28.736 81.024 28.544 80.576 28.352C80.1387 28.16 79.76 27.8613 79.44 27.456C79.1307 27.04 78.976 26.4853 78.976 25.792C78.976 25.184 79.1307 24.6453 79.44 24.176C79.7493 23.7067 80.1813 23.344 80.736 23.088C81.3013 22.832 81.9467 22.704 82.672 22.704C83.7173 22.704 84.5707 22.9653 85.232 23.488C85.904 24.0107 86.2827 24.704 86.368 25.568H84.768C84.7147 25.1413 84.4907 24.768 84.096 24.448C83.7013 24.1173 83.1787 23.952 82.528 23.952C81.92 23.952 81.424 24.112 81.04 24.432C80.656 24.7413 80.464 25.1787 80.464 25.744C80.464 26.1493 80.576 26.48 80.8 26.736C81.0347 26.992 81.3173 27.1893 81.648 27.328C81.9893 27.456 82.464 27.6053 83.072 27.776C83.808 27.9787 84.4 28.1813 84.848 28.384C85.296 28.576 85.68 28.88 86 29.296C86.32 29.7013 86.48 30.256 86.48 30.96C86.48 31.504 86.336 32.016 86.048 32.496C85.76 32.976 85.3333 33.3653 84.768 33.664C84.2027 33.9627 83.536 34.112 82.768 34.112ZM96.3986 25.232V34H94.9426V32.704C94.6653 33.152 94.276 33.504 93.7746 33.76C93.284 34.0053 92.74 34.128 92.1426 34.128C91.46 34.128 90.8466 33.9893 90.3026 33.712C89.7586 33.424 89.3266 32.9973 89.0066 32.432C88.6973 31.8667 88.5426 31.1787 88.5426 30.368V25.232H89.9826V30.176C89.9826 31.04 90.2013 31.7067 90.6386 32.176C91.076 32.6347 91.6733 32.864 92.4306 32.864C93.2093 32.864 93.8226 32.624 94.2706 32.144C94.7186 31.664 94.9426 30.9653 94.9426 30.048V25.232H96.3986ZM100.313 26.848C100.601 26.3467 101.028 25.9307 101.593 25.6C102.169 25.2587 102.836 25.088 103.593 25.088C104.372 25.088 105.076 25.2747 105.705 25.648C106.345 26.0213 106.846 26.5493 107.209 27.232C107.572 27.904 107.753 28.688 107.753 29.584C107.753 30.4693 107.572 31.2587 107.209 31.952C106.846 32.6453 106.345 33.184 105.705 33.568C105.076 33.952 104.372 34.144 103.593 34.144C102.846 34.144 102.185 33.9787 101.609 33.648C101.044 33.3067 100.612 32.8853 100.313 32.384V38.16H98.857V25.232H100.313V26.848ZM106.265 29.584C106.265 28.9227 106.132 28.3467 105.865 27.856C105.598 27.3653 105.236 26.992 104.777 26.736C104.329 26.48 103.833 26.352 103.289 26.352C102.756 26.352 102.26 26.4853 101.801 26.752C101.353 27.008 100.99 27.3867 100.713 27.888C100.446 28.3787 100.313 28.9493 100.313 29.6C100.313 30.2613 100.446 30.8427 100.713 31.344C100.99 31.8347 101.353 32.2133 101.801 32.48C102.26 32.736 102.756 32.864 103.289 32.864C103.833 32.864 104.329 32.736 104.777 32.48C105.236 32.2133 105.598 31.8347 105.865 31.344C106.132 30.8427 106.265 30.256 106.265 29.584ZM111.126 26.848C111.414 26.3467 111.84 25.9307 112.406 25.6C112.982 25.2587 113.648 25.088 114.406 25.088C115.184 25.088 115.888 25.2747 116.517 25.648C117.157 26.0213 117.659 26.5493 118.022 27.232C118.384 27.904 118.566 28.688 118.566 29.584C118.566 30.4693 118.384 31.2587 118.022 31.952C117.659 32.6453 117.157 33.184 116.517 33.568C115.888 33.952 115.184 34.144 114.406 34.144C113.659 34.144 112.998 33.9787 112.422 33.648C111.856 33.3067 111.424 32.8853 111.126 32.384V38.16H109.67V25.232H111.126V26.848ZM117.078 29.584C117.078 28.9227 116.944 28.3467 116.678 27.856C116.411 27.3653 116.048 26.992 115.59 26.736C115.142 26.48 114.646 26.352 114.102 26.352C113.568 26.352 113.072 26.4853 112.614 26.752C112.166 27.008 111.803 27.3867 111.526 27.888C111.259 28.3787 111.126 28.9493 111.126 29.6C111.126 30.2613 111.259 30.8427 111.526 31.344C111.803 31.8347 112.166 32.2133 112.614 32.48C113.072 32.736 113.568 32.864 114.102 32.864C114.646 32.864 115.142 32.736 115.59 32.48C116.048 32.2133 116.411 31.8347 116.678 31.344C116.944 30.8427 117.078 30.256 117.078 29.584ZM124.306 34.144C123.485 34.144 122.738 33.9573 122.066 33.584C121.405 33.2107 120.882 32.6827 120.498 32C120.125 31.3067 119.938 30.5067 119.938 29.6C119.938 28.704 120.13 27.9147 120.514 27.232C120.909 26.5387 121.442 26.0107 122.114 25.648C122.786 25.2747 123.538 25.088 124.37 25.088C125.202 25.088 125.954 25.2747 126.626 25.648C127.298 26.0107 127.826 26.5333 128.21 27.216C128.605 27.8987 128.802 28.6933 128.802 29.6C128.802 30.5067 128.599 31.3067 128.194 32C127.799 32.6827 127.261 33.2107 126.578 33.584C125.895 33.9573 125.138 34.144 124.306 34.144ZM124.306 32.864C124.829 32.864 125.319 32.7413 125.778 32.496C126.237 32.2507 126.605 31.8827 126.882 31.392C127.17 30.9013 127.314 30.304 127.314 29.6C127.314 28.896 127.175 28.2987 126.898 27.808C126.621 27.3173 126.258 26.9547 125.81 26.72C125.362 26.4747 124.877 26.352 124.354 26.352C123.821 26.352 123.33 26.4747 122.882 26.72C122.445 26.9547 122.093 27.3173 121.826 27.808C121.559 28.2987 121.426 28.896 121.426 29.6C121.426 30.3147 121.554 30.9173 121.81 31.408C122.077 31.8987 122.429 32.2667 122.866 32.512C123.303 32.7467 123.783 32.864 124.306 32.864ZM132.172 26.656C132.428 26.1547 132.791 25.7653 133.26 25.488C133.74 25.2107 134.322 25.072 135.004 25.072V26.576H134.62C132.988 26.576 132.172 27.4613 132.172 29.232V34H130.716V25.232H132.172V26.656ZM138.461 26.432V31.6C138.461 32.0267 138.552 32.3307 138.733 32.512C138.914 32.6827 139.229 32.768 139.677 32.768H140.749V34H139.437C138.626 34 138.018 33.8133 137.613 33.44C137.208 33.0667 137.005 32.4533 137.005 31.6V26.432H135.869V25.232H137.005V23.024H138.461V25.232H140.749V26.432H138.461Z" fill="#686868"/>
</svg>
