<svg width="242" height="56" viewBox="0 0 242 56" fill="none" xmlns="http://www.w3.org/2000/svg">
<path d="M48.2222 20.8H46.4444V19H44.6667V20.8H39.3333V19H37.5556V20.8H35.7778C34.7973 20.8 34 21.6073 34 22.6V35.2C34 36.1927 34.7973 37 35.7778 37H48.2222C49.2027 37 50 36.1927 50 35.2V22.6C50 21.6073 49.2027 20.8 48.2222 20.8ZM47.3333 34.3H42V28.9H47.3333V34.3ZM48.2222 25.3H35.7778V23.5H48.2222V25.3Z" fill="#B2B2B2"/>
<path d="M85.824 31.52H80.96L80.064 34H78.528L82.56 22.912H84.24L88.256 34H86.72L85.824 31.52ZM85.408 30.336L83.392 24.704L81.376 30.336H85.408ZM91.7893 26.432V31.6C91.7893 32.0267 91.8799 32.3307 92.0613 32.512C92.2426 32.6827 92.5573 32.768 93.0052 32.768H94.0773V34H92.7653C91.9546 34 91.3466 33.8133 90.9413 33.44C90.5359 33.0667 90.3333 32.4533 90.3333 31.6V26.432H89.1973V25.232H90.3333V23.024H91.7893V25.232H94.0773V26.432H91.7893ZM97.6174 26.432V31.6C97.6174 32.0267 97.708 32.3307 97.8894 32.512C98.0707 32.6827 98.3854 32.768 98.8334 32.768H99.9054V34H98.5934C97.7827 34 97.1747 33.8133 96.7694 33.44C96.364 33.0667 96.1614 32.4533 96.1614 31.6V26.432H95.0254V25.232H96.1614V23.024H97.6174V25.232H99.9054V26.432H97.6174ZM109.67 29.28C109.67 29.5573 109.654 29.8507 109.622 30.16H102.614C102.667 31.024 102.96 31.7013 103.494 32.192C104.038 32.672 104.694 32.912 105.462 32.912C106.091 32.912 106.614 32.768 107.03 32.48C107.456 32.1813 107.755 31.7867 107.926 31.296H109.494C109.259 32.1387 108.79 32.8267 108.086 33.36C107.382 33.8827 106.507 34.144 105.462 34.144C104.63 34.144 103.883 33.9573 103.222 33.584C102.571 33.2107 102.059 32.6827 101.686 32C101.312 31.3067 101.126 30.5067 101.126 29.6C101.126 28.6933 101.307 27.8987 101.67 27.216C102.032 26.5333 102.539 26.0107 103.19 25.648C103.851 25.2747 104.608 25.088 105.462 25.088C106.294 25.088 107.03 25.2693 107.67 25.632C108.31 25.9947 108.8 26.496 109.142 27.136C109.494 27.7653 109.67 28.48 109.67 29.28ZM108.166 28.976C108.166 28.4213 108.043 27.9467 107.798 27.552C107.552 27.1467 107.216 26.8427 106.79 26.64C106.374 26.4267 105.91 26.32 105.398 26.32C104.662 26.32 104.032 26.5547 103.51 27.024C102.998 27.4933 102.704 28.144 102.63 28.976H108.166ZM115.863 25.072C116.93 25.072 117.794 25.3973 118.455 26.048C119.117 26.688 119.447 27.616 119.447 28.832V34H118.007V29.04C118.007 28.1653 117.789 27.4987 117.351 27.04C116.914 26.5707 116.317 26.336 115.559 26.336C114.791 26.336 114.178 26.576 113.719 27.056C113.271 27.536 113.047 28.2347 113.047 29.152V34H111.591V25.232H113.047V26.48C113.335 26.032 113.725 25.6853 114.215 25.44C114.717 25.1947 115.266 25.072 115.863 25.072ZM121.282 29.584C121.282 28.688 121.463 27.904 121.826 27.232C122.188 26.5493 122.684 26.0213 123.314 25.648C123.954 25.2747 124.668 25.088 125.458 25.088C126.14 25.088 126.775 25.248 127.362 25.568C127.948 25.8773 128.396 26.288 128.706 26.8V22.16H130.178V34H128.706V32.352C128.418 32.8747 127.991 33.3067 127.426 33.648C126.86 33.9787 126.199 34.144 125.442 34.144C124.663 34.144 123.954 33.952 123.314 33.568C122.684 33.184 122.188 32.6453 121.826 31.952C121.463 31.2587 121.282 30.4693 121.282 29.584ZM128.706 29.6C128.706 28.9387 128.572 28.3627 128.306 27.872C128.039 27.3813 127.676 27.008 127.218 26.752C126.77 26.4853 126.274 26.352 125.73 26.352C125.186 26.352 124.69 26.48 124.242 26.736C123.794 26.992 123.436 27.3653 123.17 27.856C122.903 28.3467 122.77 28.9227 122.77 29.584C122.77 30.256 122.903 30.8427 123.17 31.344C123.436 31.8347 123.794 32.2133 124.242 32.48C124.69 32.736 125.186 32.864 125.73 32.864C126.274 32.864 126.77 32.736 127.218 32.48C127.676 32.2133 128.039 31.8347 128.306 31.344C128.572 30.8427 128.706 30.2613 128.706 29.6ZM132.094 29.584C132.094 28.688 132.276 27.904 132.638 27.232C133.001 26.5493 133.497 26.0213 134.126 25.648C134.766 25.2747 135.476 25.088 136.254 25.088C137.022 25.088 137.689 25.2533 138.254 25.584C138.82 25.9147 139.241 26.3307 139.518 26.832V25.232H140.99V34H139.518V32.368C139.23 32.88 138.798 33.3067 138.222 33.648C137.657 33.9787 136.996 34.144 136.238 34.144C135.46 34.144 134.756 33.952 134.126 33.568C133.497 33.184 133.001 32.6453 132.638 31.952C132.276 31.2587 132.094 30.4693 132.094 29.584ZM139.518 29.6C139.518 28.9387 139.385 28.3627 139.118 27.872C138.852 27.3813 138.489 27.008 138.03 26.752C137.582 26.4853 137.086 26.352 136.542 26.352C135.998 26.352 135.502 26.48 135.054 26.736C134.606 26.992 134.249 27.3653 133.982 27.856C133.716 28.3467 133.582 28.9227 133.582 29.584C133.582 30.256 133.716 30.8427 133.982 31.344C134.249 31.8347 134.606 32.2133 135.054 32.48C135.502 32.736 135.998 32.864 136.542 32.864C137.086 32.864 137.582 32.736 138.03 32.48C138.489 32.2133 138.852 31.8347 139.118 31.344C139.385 30.8427 139.518 30.2613 139.518 29.6ZM147.723 25.072C148.789 25.072 149.653 25.3973 150.315 26.048C150.976 26.688 151.307 27.616 151.307 28.832V34H149.867V29.04C149.867 28.1653 149.648 27.4987 149.211 27.04C148.773 26.5707 148.176 26.336 147.419 26.336C146.651 26.336 146.037 26.576 145.579 27.056C145.131 27.536 144.907 28.2347 144.907 29.152V34H143.451V25.232H144.907V26.48C145.195 26.032 145.584 25.6853 146.075 25.44C146.576 25.1947 147.125 25.072 147.723 25.072ZM153.141 29.6C153.141 28.6933 153.322 27.904 153.685 27.232C154.048 26.5493 154.549 26.0213 155.189 25.648C155.84 25.2747 156.581 25.088 157.413 25.088C158.49 25.088 159.376 25.3493 160.069 25.872C160.773 26.3947 161.237 27.12 161.461 28.048H159.893C159.744 27.5147 159.45 27.0933 159.013 26.784C158.586 26.4747 158.053 26.32 157.413 26.32C156.581 26.32 155.909 26.608 155.397 27.184C154.885 27.7493 154.629 28.5547 154.629 29.6C154.629 30.656 154.885 31.472 155.397 32.048C155.909 32.624 156.581 32.912 157.413 32.912C158.053 32.912 158.586 32.7627 159.013 32.464C159.44 32.1653 159.733 31.7387 159.893 31.184H161.461C161.226 32.08 160.757 32.8 160.053 33.344C159.349 33.8773 158.469 34.144 157.413 34.144C156.581 34.144 155.84 33.9573 155.189 33.584C154.549 33.2107 154.048 32.6827 153.685 32C153.322 31.3173 153.141 30.5173 153.141 29.6ZM171.404 29.28C171.404 29.5573 171.388 29.8507 171.356 30.16H164.348C164.401 31.024 164.695 31.7013 165.228 32.192C165.772 32.672 166.428 32.912 167.196 32.912C167.825 32.912 168.348 32.768 168.764 32.48C169.191 32.1813 169.489 31.7867 169.66 31.296H171.228C170.993 32.1387 170.524 32.8267 169.82 33.36C169.116 33.8827 168.241 34.144 167.196 34.144C166.364 34.144 165.617 33.9573 164.956 33.584C164.305 33.2107 163.793 32.6827 163.42 32C163.047 31.3067 162.86 30.5067 162.86 29.6C162.86 28.6933 163.041 27.8987 163.404 27.216C163.767 26.5333 164.273 26.0107 164.924 25.648C165.585 25.2747 166.343 25.088 167.196 25.088C168.028 25.088 168.764 25.2693 169.404 25.632C170.044 25.9947 170.535 26.496 170.876 27.136C171.228 27.7653 171.404 28.48 171.404 29.28ZM169.9 28.976C169.9 28.4213 169.777 27.9467 169.532 27.552C169.287 27.1467 168.951 26.8427 168.524 26.64C168.108 26.4267 167.644 26.32 167.132 26.32C166.396 26.32 165.767 26.5547 165.244 27.024C164.732 27.4933 164.439 28.144 164.364 28.976H169.9Z" fill="#686868"/>
</svg>
