<svg width="427" height="38" viewBox="0 0 427 38" fill="none" xmlns="http://www.w3.org/2000/svg">
<rect width="427" height="38" rx="5" fill="white"/>
<path d="M32.6667 18.3333H23.3333C22.597 18.3333 22 18.9303 22 19.6667V24.3333C22 25.0697 22.597 25.6667 23.3333 25.6667H32.6667C33.403 25.6667 34 25.0697 34 24.3333V19.6667C34 18.9303 33.403 18.3333 32.6667 18.3333Z" stroke="#203060" stroke-linecap="round" stroke-linejoin="round"/>
<path d="M24.6666 18.3333V15.6667C24.6666 14.7826 25.0178 13.9348 25.6429 13.3096C26.2681 12.6845 27.1159 12.3333 28 12.3333C28.884 12.3333 29.7319 12.6845 30.357 13.3096C30.9821 13.9348 31.3333 14.7826 31.3333 15.6667V18.3333" stroke="#203060" stroke-linecap="round" stroke-linejoin="round"/>
<path d="M52.516 17.084C52.516 17.78 52.276 18.36 51.796 18.824C51.324 19.28 50.6 19.508 49.624 19.508H48.016V23H46.924V14.636H49.624C50.568 14.636 51.284 14.864 51.772 15.32C52.268 15.776 52.516 16.364 52.516 17.084ZM49.624 18.608C50.232 18.608 50.68 18.476 50.968 18.212C51.256 17.948 51.4 17.572 51.4 17.084C51.4 16.052 50.808 15.536 49.624 15.536H48.016V18.608H49.624ZM53.4652 19.688C53.4652 19.016 53.6012 18.428 53.8732 17.924C54.1452 17.412 54.5172 17.016 54.9892 16.736C55.4692 16.456 56.0012 16.316 56.5852 16.316C57.1612 16.316 57.6612 16.44 58.0852 16.688C58.5092 16.936 58.8252 17.248 59.0332 17.624V16.424H60.1372V23H59.0332V21.776C58.8172 22.16 58.4932 22.48 58.0612 22.736C57.6372 22.984 57.1412 23.108 56.5732 23.108C55.9892 23.108 55.4612 22.964 54.9892 22.676C54.5172 22.388 54.1452 21.984 53.8732 21.464C53.6012 20.944 53.4652 20.352 53.4652 19.688ZM59.0332 19.7C59.0332 19.204 58.9332 18.772 58.7332 18.404C58.5332 18.036 58.2612 17.756 57.9172 17.564C57.5812 17.364 57.2092 17.264 56.8012 17.264C56.3932 17.264 56.0212 17.36 55.6852 17.552C55.3492 17.744 55.0812 18.024 54.8812 18.392C54.6812 18.76 54.5812 19.192 54.5812 19.688C54.5812 20.192 54.6812 20.632 54.8812 21.008C55.0812 21.376 55.3492 21.66 55.6852 21.86C56.0212 22.052 56.3932 22.148 56.8012 22.148C57.2092 22.148 57.5812 22.052 57.9172 21.86C58.2612 21.66 58.5332 21.376 58.7332 21.008C58.9332 20.632 59.0332 20.196 59.0332 19.7ZM64.3106 23.108C63.8066 23.108 63.3546 23.024 62.9546 22.856C62.5546 22.68 62.2386 22.44 62.0066 22.136C61.7746 21.824 61.6466 21.468 61.6226 21.068H62.7506C62.7826 21.396 62.9346 21.664 63.2066 21.872C63.4866 22.08 63.8506 22.184 64.2986 22.184C64.7146 22.184 65.0426 22.092 65.2826 21.908C65.5226 21.724 65.6426 21.492 65.6426 21.212C65.6426 20.924 65.5146 20.712 65.2586 20.576C65.0026 20.432 64.6066 20.292 64.0706 20.156C63.5826 20.028 63.1826 19.9 62.8706 19.772C62.5666 19.636 62.3026 19.44 62.0786 19.184C61.8626 18.92 61.7546 18.576 61.7546 18.152C61.7546 17.816 61.8546 17.508 62.0546 17.228C62.2546 16.948 62.5386 16.728 62.9066 16.568C63.2746 16.4 63.6946 16.316 64.1666 16.316C64.8946 16.316 65.4826 16.5 65.9306 16.868C66.3786 17.236 66.6186 17.74 66.6506 18.38H65.5586C65.5346 18.036 65.3946 17.76 65.1386 17.552C64.8906 17.344 64.5546 17.24 64.1306 17.24C63.7386 17.24 63.4266 17.324 63.1946 17.492C62.9626 17.66 62.8466 17.88 62.8466 18.152C62.8466 18.368 62.9146 18.548 63.0506 18.692C63.1946 18.828 63.3706 18.94 63.5786 19.028C63.7946 19.108 64.0906 19.2 64.4666 19.304C64.9386 19.432 65.3226 19.56 65.6186 19.688C65.9146 19.808 66.1666 19.992 66.3746 20.24C66.5906 20.488 66.7026 20.812 66.7106 21.212C66.7106 21.572 66.6106 21.896 66.4106 22.184C66.2106 22.472 65.9266 22.7 65.5586 22.868C65.1986 23.028 64.7826 23.108 64.3106 23.108ZM70.5801 23.108C70.0761 23.108 69.6241 23.024 69.2241 22.856C68.8241 22.68 68.5081 22.44 68.2761 22.136C68.0441 21.824 67.9161 21.468 67.8921 21.068H69.0201C69.0521 21.396 69.2041 21.664 69.4761 21.872C69.7561 22.08 70.1201 22.184 70.5681 22.184C70.9841 22.184 71.3121 22.092 71.5521 21.908C71.7921 21.724 71.9121 21.492 71.9121 21.212C71.9121 20.924 71.7841 20.712 71.5281 20.576C71.2721 20.432 70.8761 20.292 70.3401 20.156C69.8521 20.028 69.4521 19.9 69.1401 19.772C68.8361 19.636 68.5721 19.44 68.3481 19.184C68.1321 18.92 68.0241 18.576 68.0241 18.152C68.0241 17.816 68.1241 17.508 68.3241 17.228C68.5241 16.948 68.8081 16.728 69.1761 16.568C69.5441 16.4 69.9641 16.316 70.4361 16.316C71.1641 16.316 71.7521 16.5 72.2001 16.868C72.6481 17.236 72.8881 17.74 72.9201 18.38H71.8281C71.8041 18.036 71.6641 17.76 71.4081 17.552C71.1601 17.344 70.8241 17.24 70.4001 17.24C70.0081 17.24 69.6961 17.324 69.4641 17.492C69.2321 17.66 69.1161 17.88 69.1161 18.152C69.1161 18.368 69.1841 18.548 69.3201 18.692C69.4641 18.828 69.6401 18.94 69.8481 19.028C70.0641 19.108 70.3601 19.2 70.7361 19.304C71.2081 19.432 71.5921 19.56 71.8881 19.688C72.1841 19.808 72.4361 19.992 72.6441 20.24C72.8601 20.488 72.9721 20.812 72.9801 21.212C72.9801 21.572 72.8801 21.896 72.6801 22.184C72.4801 22.472 72.1961 22.7 71.8281 22.868C71.4681 23.028 71.0521 23.108 70.5801 23.108ZM83.2817 16.424L81.2297 23H80.1017L78.5177 17.78L76.9337 23H75.8057L73.7417 16.424H74.8577L76.3697 21.944L78.0017 16.424H79.1177L80.7137 21.956L82.2017 16.424H83.2817ZM87.2334 23.108C86.6174 23.108 86.0574 22.968 85.5534 22.688C85.0574 22.408 84.6654 22.012 84.3774 21.5C84.0974 20.98 83.9574 20.38 83.9574 19.7C83.9574 19.028 84.1014 18.436 84.3894 17.924C84.6854 17.404 85.0854 17.008 85.5894 16.736C86.0934 16.456 86.6574 16.316 87.2814 16.316C87.9054 16.316 88.4694 16.456 88.9734 16.736C89.4774 17.008 89.8734 17.4 90.1614 17.912C90.4574 18.424 90.6054 19.02 90.6054 19.7C90.6054 20.38 90.4534 20.98 90.1494 21.5C89.8534 22.012 89.4494 22.408 88.9374 22.688C88.4254 22.968 87.8574 23.108 87.2334 23.108ZM87.2334 22.148C87.6254 22.148 87.9934 22.056 88.3374 21.872C88.6814 21.688 88.9574 21.412 89.1654 21.044C89.3814 20.676 89.4894 20.228 89.4894 19.7C89.4894 19.172 89.3854 18.724 89.1774 18.356C88.9694 17.988 88.6974 17.716 88.3614 17.54C88.0254 17.356 87.6614 17.264 87.2694 17.264C86.8694 17.264 86.5014 17.356 86.1654 17.54C85.8374 17.716 85.5734 17.988 85.3734 18.356C85.1734 18.724 85.0734 19.172 85.0734 19.7C85.0734 20.236 85.1694 20.688 85.3614 21.056C85.5614 21.424 85.8254 21.7 86.1534 21.884C86.4814 22.06 86.8414 22.148 87.2334 22.148ZM93.1332 17.492C93.3252 17.116 93.5972 16.824 93.9492 16.616C94.3092 16.408 94.7452 16.304 95.2572 16.304V17.432H94.9692C93.7452 17.432 93.1332 18.096 93.1332 19.424V23H92.0412V16.424H93.1332V17.492ZM96.1098 19.688C96.1098 19.016 96.2458 18.428 96.5178 17.924C96.7898 17.412 97.1618 17.016 97.6338 16.736C98.1138 16.456 98.6498 16.316 99.2418 16.316C99.7538 16.316 100.23 16.436 100.67 16.676C101.11 16.908 101.446 17.216 101.678 17.6V14.12H102.782V23H101.678V21.764C101.462 22.156 101.142 22.48 100.718 22.736C100.294 22.984 99.7978 23.108 99.2298 23.108C98.6458 23.108 98.1138 22.964 97.6338 22.676C97.1618 22.388 96.7898 21.984 96.5178 21.464C96.2458 20.944 96.1098 20.352 96.1098 19.688ZM101.678 19.7C101.678 19.204 101.578 18.772 101.378 18.404C101.178 18.036 100.906 17.756 100.562 17.564C100.226 17.364 99.8538 17.264 99.4458 17.264C99.0378 17.264 98.6658 17.36 98.3298 17.552C97.9938 17.744 97.7258 18.024 97.5258 18.392C97.3258 18.76 97.2258 19.192 97.2258 19.688C97.2258 20.192 97.3258 20.632 97.5258 21.008C97.7258 21.376 97.9938 21.66 98.3298 21.86C98.6658 22.052 99.0378 22.148 99.4458 22.148C99.8538 22.148 100.226 22.052 100.562 21.86C100.906 21.66 101.178 21.376 101.378 21.008C101.578 20.632 101.678 20.196 101.678 19.7Z" fill="#203060"/>
</svg>
