<svg width="427" height="38" viewBox="0 0 427 38" fill="none" xmlns="http://www.w3.org/2000/svg">
<rect width="427" height="38" rx="5" fill="#E9374A"/>
<path d="M196.792 23.084C196.176 23.084 195.624 22.984 195.136 22.784C194.648 22.584 194.256 22.288 193.96 21.896C193.672 21.504 193.52 21.032 193.504 20.48H195.688C195.72 20.792 195.828 21.032 196.012 21.2C196.196 21.36 196.436 21.44 196.732 21.44C197.036 21.44 197.276 21.372 197.452 21.236C197.628 21.092 197.716 20.896 197.716 20.648C197.716 20.44 197.644 20.268 197.5 20.132C197.364 19.996 197.192 19.884 196.984 19.796C196.784 19.708 196.496 19.608 196.12 19.496C195.576 19.328 195.132 19.16 194.788 18.992C194.444 18.824 194.148 18.576 193.9 18.248C193.652 17.92 193.528 17.492 193.528 16.964C193.528 16.18 193.812 15.568 194.38 15.128C194.948 14.68 195.688 14.456 196.6 14.456C197.528 14.456 198.276 14.68 198.844 15.128C199.412 15.568 199.716 16.184 199.756 16.976H197.536C197.52 16.704 197.42 16.492 197.236 16.34C197.052 16.18 196.816 16.1 196.528 16.1C196.28 16.1 196.08 16.168 195.928 16.304C195.776 16.432 195.7 16.62 195.7 16.868C195.7 17.14 195.828 17.352 196.084 17.504C196.34 17.656 196.74 17.82 197.284 17.996C197.828 18.18 198.268 18.356 198.604 18.524C198.948 18.692 199.244 18.936 199.492 19.256C199.74 19.576 199.864 19.988 199.864 20.492C199.864 20.972 199.74 21.408 199.492 21.8C199.252 22.192 198.9 22.504 198.436 22.736C197.972 22.968 197.424 23.084 196.792 23.084ZM202.159 15.608C201.799 15.608 201.503 15.504 201.271 15.296C201.047 15.08 200.935 14.816 200.935 14.504C200.935 14.184 201.047 13.92 201.271 13.712C201.503 13.496 201.799 13.388 202.159 13.388C202.511 13.388 202.799 13.496 203.023 13.712C203.255 13.92 203.371 14.184 203.371 14.504C203.371 14.816 203.255 15.08 203.023 15.296C202.799 15.504 202.511 15.608 202.159 15.608ZM203.179 16.304V23H201.127V16.304H203.179ZM207.21 16.208C207.682 16.208 208.094 16.304 208.446 16.496C208.806 16.688 209.082 16.94 209.274 17.252V16.304H211.326V22.988C211.326 23.604 211.202 24.16 210.954 24.656C210.714 25.16 210.342 25.56 209.838 25.856C209.342 26.152 208.722 26.3 207.978 26.3C206.986 26.3 206.182 26.064 205.566 25.592C204.95 25.128 204.598 24.496 204.51 23.696H206.538C206.602 23.952 206.754 24.152 206.994 24.296C207.234 24.448 207.53 24.524 207.882 24.524C208.306 24.524 208.642 24.4 208.89 24.152C209.146 23.912 209.274 23.524 209.274 22.988V22.04C209.074 22.352 208.798 22.608 208.446 22.808C208.094 23 207.682 23.096 207.21 23.096C206.658 23.096 206.158 22.956 205.71 22.676C205.262 22.388 204.906 21.984 204.642 21.464C204.386 20.936 204.258 20.328 204.258 19.64C204.258 18.952 204.386 18.348 204.642 17.828C204.906 17.308 205.262 16.908 205.71 16.628C206.158 16.348 206.658 16.208 207.21 16.208ZM209.274 19.652C209.274 19.14 209.13 18.736 208.842 18.44C208.562 18.144 208.218 17.996 207.81 17.996C207.402 17.996 207.054 18.144 206.766 18.44C206.486 18.728 206.346 19.128 206.346 19.64C206.346 20.152 206.486 20.56 206.766 20.864C207.054 21.16 207.402 21.308 207.81 21.308C208.218 21.308 208.562 21.16 208.842 20.864C209.13 20.568 209.274 20.164 209.274 19.652ZM216.891 16.232C217.675 16.232 218.299 16.488 218.763 17C219.235 17.504 219.471 18.2 219.471 19.088V23H217.431V19.364C217.431 18.916 217.315 18.568 217.083 18.32C216.851 18.072 216.539 17.948 216.147 17.948C215.755 17.948 215.443 18.072 215.211 18.32C214.979 18.568 214.863 18.916 214.863 19.364V23H212.811V16.304H214.863V17.192C215.071 16.896 215.351 16.664 215.703 16.496C216.055 16.32 216.451 16.232 216.891 16.232ZM224.471 15.608C224.111 15.608 223.815 15.504 223.583 15.296C223.359 15.08 223.247 14.816 223.247 14.504C223.247 14.184 223.359 13.92 223.583 13.712C223.815 13.496 224.111 13.388 224.471 13.388C224.823 13.388 225.111 13.496 225.335 13.712C225.567 13.92 225.683 14.184 225.683 14.504C225.683 14.816 225.567 15.08 225.335 15.296C225.111 15.504 224.823 15.608 224.471 15.608ZM225.491 16.304V23H223.439V16.304H225.491ZM231.058 16.232C231.842 16.232 232.466 16.488 232.93 17C233.402 17.504 233.638 18.2 233.638 19.088V23H231.598V19.364C231.598 18.916 231.482 18.568 231.25 18.32C231.018 18.072 230.706 17.948 230.314 17.948C229.922 17.948 229.61 18.072 229.378 18.32C229.146 18.568 229.03 18.916 229.03 19.364V23H226.978V16.304H229.03V17.192C229.238 16.896 229.518 16.664 229.87 16.496C230.222 16.32 230.618 16.232 231.058 16.232Z" fill="white"/>
</svg>
