<svg width="427" height="440" viewBox="0 0 427 440" fill="none" xmlns="http://www.w3.org/2000/svg">
<path d="M19.592 68.434C16.4093 68.434 13.5573 67.9173 11.036 66.884C8.51467 65.8507 6.48933 64.3213 4.96 62.296C3.472 60.2707 2.68667 57.832 2.604 54.98H13.888C14.0533 56.592 14.6113 57.832 15.562 58.7C16.5127 59.5267 17.7527 59.94 19.282 59.94C20.8527 59.94 22.0927 59.5887 23.002 58.886C23.9113 58.142 24.366 57.1293 24.366 55.848C24.366 54.7733 23.994 53.8847 23.25 53.182C22.5473 52.4793 21.6587 51.9007 20.584 51.446C19.5507 50.9913 18.0627 50.4747 16.12 49.896C13.3093 49.028 11.0153 48.16 9.238 47.292C7.46067 46.424 5.93133 45.1427 4.65 43.448C3.36867 41.7533 2.728 39.542 2.728 36.814C2.728 32.7633 4.19533 29.6013 7.13 27.328C10.0647 25.0133 13.888 23.856 18.6 23.856C23.3947 23.856 27.2593 25.0133 30.194 27.328C33.1287 29.6013 34.6993 32.784 34.906 36.876H23.436C23.3533 35.4707 22.8367 34.3753 21.886 33.59C20.9353 32.7633 19.716 32.35 18.228 32.35C16.9467 32.35 15.9133 32.7013 15.128 33.404C14.3427 34.0653 13.95 35.0367 13.95 36.318C13.95 37.7233 14.6113 38.8187 15.934 39.604C17.2567 40.3893 19.3233 41.2367 22.134 42.146C24.9447 43.0967 27.218 44.006 28.954 44.874C30.7313 45.742 32.2607 47.0027 33.542 48.656C34.8233 50.3093 35.464 52.438 35.464 55.042C35.464 57.522 34.8233 59.7747 33.542 61.8C32.302 63.8253 30.4833 65.4373 28.086 66.636C25.6887 67.8347 22.8573 68.434 19.592 68.434ZM47.3205 29.808C45.4605 29.808 43.9312 29.2707 42.7325 28.196C41.5752 27.08 40.9965 25.716 40.9965 24.104C40.9965 22.4507 41.5752 21.0867 42.7325 20.012C43.9312 18.896 45.4605 18.338 47.3205 18.338C49.1392 18.338 50.6272 18.896 51.7845 20.012C52.9832 21.0867 53.5825 22.4507 53.5825 24.104C53.5825 25.716 52.9832 27.08 51.7845 28.196C50.6272 29.2707 49.1392 29.808 47.3205 29.808ZM52.5905 33.404V68H41.9885V33.404H52.5905ZM73.4177 32.908C75.8564 32.908 77.985 33.404 79.8037 34.396C81.6637 35.388 83.0897 36.69 84.0817 38.302V33.404H94.6837V67.938C94.6837 71.1207 94.043 73.9933 92.7617 76.556C91.5217 79.16 89.5997 81.2267 86.9957 82.756C84.433 84.2853 81.2297 85.05 77.3857 85.05C72.2604 85.05 68.1064 83.8307 64.9237 81.392C61.741 78.9947 59.9224 75.7293 59.4677 71.596H69.9457C70.2764 72.9187 71.0617 73.952 72.3017 74.696C73.5417 75.4813 75.071 75.874 76.8897 75.874C79.0804 75.874 80.8164 75.2333 82.0977 73.952C83.4204 72.712 84.0817 70.7073 84.0817 67.938V63.04C83.0484 64.652 81.6224 65.9747 79.8037 67.008C77.985 68 75.8564 68.496 73.4177 68.496C70.5657 68.496 67.9824 67.7727 65.6677 66.326C63.353 64.838 61.5137 62.7507 60.1497 60.064C58.827 57.336 58.1657 54.1947 58.1657 50.64C58.1657 47.0853 58.827 43.9647 60.1497 41.278C61.5137 38.5913 63.353 36.5247 65.6677 35.078C67.9824 33.6313 70.5657 32.908 73.4177 32.908ZM84.0817 50.702C84.0817 48.0567 83.3377 45.9693 81.8497 44.44C80.403 42.9107 78.6257 42.146 76.5177 42.146C74.4097 42.146 72.6117 42.9107 71.1237 44.44C69.677 45.928 68.9537 47.9947 68.9537 50.64C68.9537 53.2853 69.677 55.3933 71.1237 56.964C72.6117 58.4933 74.4097 59.258 76.5177 59.258C78.6257 59.258 80.403 58.4933 81.8497 56.964C83.3377 55.4347 84.0817 53.3473 84.0817 50.702ZM123.434 33.032C127.484 33.032 130.708 34.3547 133.106 37C135.544 39.604 136.764 43.2 136.764 47.788V68H126.224V49.214C126.224 46.8993 125.624 45.1013 124.426 43.82C123.227 42.5387 121.615 41.898 119.59 41.898C117.564 41.898 115.952 42.5387 114.754 43.82C113.555 45.1013 112.956 46.8993 112.956 49.214V68H102.354V33.404H112.956V37.992C114.03 36.4627 115.477 35.264 117.296 34.396C119.114 33.4867 121.16 33.032 123.434 33.032ZM167.872 24.476V68H157.27V24.476H167.872ZM196.635 33.032C200.686 33.032 203.91 34.3547 206.307 37C208.746 39.604 209.965 43.2 209.965 47.788V68H199.425V49.214C199.425 46.8993 198.826 45.1013 197.627 43.82C196.428 42.5387 194.816 41.898 192.791 41.898C190.766 41.898 189.154 42.5387 187.955 43.82C186.756 45.1013 186.157 46.8993 186.157 49.214V68H175.555V33.404H186.157V37.992C187.232 36.4627 188.678 35.264 190.497 34.396C192.316 33.4867 194.362 33.032 196.635 33.032ZM236.614 59.01V68H231.22C227.376 68 224.38 67.07 222.23 65.21C220.081 63.3087 219.006 60.2293 219.006 55.972V42.208H214.79V33.404H219.006V24.972H229.608V33.404H236.552V42.208H229.608V56.096C229.608 57.1293 229.856 57.8733 230.352 58.328C230.848 58.7827 231.675 59.01 232.832 59.01H236.614ZM258.268 68.496C254.878 68.496 251.82 67.7727 249.092 66.326C246.405 64.8793 244.276 62.8127 242.706 60.126C241.176 57.4393 240.412 54.298 240.412 50.702C240.412 47.1473 241.197 44.0267 242.768 41.34C244.338 38.612 246.488 36.5247 249.216 35.078C251.944 33.6313 255.002 32.908 258.392 32.908C261.781 32.908 264.84 33.6313 267.568 35.078C270.296 36.5247 272.445 38.612 274.016 41.34C275.586 44.0267 276.372 47.1473 276.372 50.702C276.372 54.2567 275.566 57.398 273.954 60.126C272.383 62.8127 270.213 64.8793 267.444 66.326C264.716 67.7727 261.657 68.496 258.268 68.496ZM258.268 59.32C260.293 59.32 262.008 58.576 263.414 57.088C264.86 55.6 265.584 53.4713 265.584 50.702C265.584 47.9327 264.881 45.804 263.476 44.316C262.112 42.828 260.417 42.084 258.392 42.084C256.325 42.084 254.61 42.828 253.246 44.316C251.882 45.7627 251.2 47.8913 251.2 50.702C251.2 53.4713 251.861 55.6 253.184 57.088C254.548 58.576 256.242 59.32 258.268 59.32Z" fill="#393939"/>
<path d="M19.92 104.94L12.63 119.04V126H7.5V119.04L0.21 104.94H6.03L10.11 113.76L14.16 104.94H19.92ZM29.607 126.24C27.967 126.24 26.487 125.89 25.167 125.19C23.867 124.49 22.837 123.49 22.077 122.19C21.337 120.89 20.967 119.37 20.967 117.63C20.967 115.91 21.347 114.4 22.107 113.1C22.867 111.78 23.907 110.77 25.227 110.07C26.547 109.37 28.027 109.02 29.667 109.02C31.307 109.02 32.787 109.37 34.107 110.07C35.427 110.77 36.467 111.78 37.227 113.1C37.987 114.4 38.367 115.91 38.367 117.63C38.367 119.35 37.977 120.87 37.197 122.19C36.437 123.49 35.387 124.49 34.047 125.19C32.727 125.89 31.247 126.24 29.607 126.24ZM29.607 121.8C30.587 121.8 31.417 121.44 32.097 120.72C32.797 120 33.147 118.97 33.147 117.63C33.147 116.29 32.807 115.26 32.127 114.54C31.467 113.82 30.647 113.46 29.667 113.46C28.667 113.46 27.837 113.82 27.177 114.54C26.517 115.24 26.187 116.27 26.187 117.63C26.187 118.97 26.507 120 27.147 120.72C27.807 121.44 28.627 121.8 29.607 121.8ZM57.6185 109.26V126H52.4885V123.72C51.9685 124.46 51.2585 125.06 50.3585 125.52C49.4785 125.96 48.4985 126.18 47.4185 126.18C46.1385 126.18 45.0085 125.9 44.0285 125.34C43.0485 124.76 42.2885 123.93 41.7485 122.85C41.2085 121.77 40.9385 120.5 40.9385 119.04V109.26H46.0385V118.35C46.0385 119.47 46.3285 120.34 46.9085 120.96C47.4885 121.58 48.2685 121.89 49.2485 121.89C50.2485 121.89 51.0385 121.58 51.6185 120.96C52.1985 120.34 52.4885 119.47 52.4885 118.35V109.26H57.6185ZM66.4334 112.05C67.0334 111.13 67.7834 110.41 68.6834 109.89C69.5834 109.35 70.5834 109.08 71.6834 109.08V114.51H70.2734C68.9934 114.51 68.0334 114.79 67.3934 115.35C66.7534 115.89 66.4334 116.85 66.4334 118.23V126H61.3034V109.26H66.4334V112.05ZM93.6028 122.28H85.7428L84.4828 126H79.1128L86.7328 104.94H92.6728L100.293 126H94.8628L93.6028 122.28ZM92.2828 118.32L89.6728 110.61L87.0928 118.32H92.2828ZM101.592 117.63C101.592 115.89 101.942 114.37 102.642 113.07C103.362 111.77 104.352 110.77 105.612 110.07C106.892 109.37 108.352 109.02 109.992 109.02C112.092 109.02 113.842 109.57 115.242 110.67C116.662 111.77 117.592 113.32 118.032 115.32H112.572C112.112 114.04 111.222 113.4 109.902 113.4C108.962 113.4 108.212 113.77 107.652 114.51C107.092 115.23 106.812 116.27 106.812 117.63C106.812 118.99 107.092 120.04 107.652 120.78C108.212 121.5 108.962 121.86 109.902 121.86C111.222 121.86 112.112 121.22 112.572 119.94H118.032C117.592 121.9 116.662 123.44 115.242 124.56C113.822 125.68 112.072 126.24 109.992 126.24C108.352 126.24 106.892 125.89 105.612 125.19C104.352 124.49 103.362 123.49 102.642 122.19C101.942 120.89 101.592 119.37 101.592 117.63ZM119.756 117.63C119.756 115.89 120.106 114.37 120.806 113.07C121.526 111.77 122.516 110.77 123.776 110.07C125.056 109.37 126.516 109.02 128.156 109.02C130.256 109.02 132.006 109.57 133.406 110.67C134.826 111.77 135.756 113.32 136.196 115.32H130.736C130.276 114.04 129.386 113.4 128.066 113.4C127.126 113.4 126.376 113.77 125.816 114.51C125.256 115.23 124.976 116.27 124.976 117.63C124.976 118.99 125.256 120.04 125.816 120.78C126.376 121.5 127.126 121.86 128.066 121.86C129.386 121.86 130.276 121.22 130.736 119.94H136.196C135.756 121.9 134.826 123.44 133.406 124.56C131.986 125.68 130.236 126.24 128.156 126.24C126.516 126.24 125.056 125.89 123.776 125.19C122.516 124.49 121.526 123.49 120.806 122.19C120.106 120.89 119.756 119.37 119.756 117.63ZM146.56 126.24C144.92 126.24 143.44 125.89 142.12 125.19C140.82 124.49 139.79 123.49 139.03 122.19C138.29 120.89 137.92 119.37 137.92 117.63C137.92 115.91 138.3 114.4 139.06 113.1C139.82 111.78 140.86 110.77 142.18 110.07C143.5 109.37 144.98 109.02 146.62 109.02C148.26 109.02 149.74 109.37 151.06 110.07C152.38 110.77 153.42 111.78 154.18 113.1C154.94 114.4 155.32 115.91 155.32 117.63C155.32 119.35 154.93 120.87 154.15 122.19C153.39 123.49 152.34 124.49 151 125.19C149.68 125.89 148.2 126.24 146.56 126.24ZM146.56 121.8C147.54 121.8 148.37 121.44 149.05 120.72C149.75 120 150.1 118.97 150.1 117.63C150.1 116.29 149.76 115.26 149.08 114.54C148.42 113.82 147.6 113.46 146.62 113.46C145.62 113.46 144.79 113.82 144.13 114.54C143.47 115.24 143.14 116.27 143.14 117.63C143.14 118.97 143.46 120 144.1 120.72C144.76 121.44 145.58 121.8 146.56 121.8ZM174.572 109.26V126H169.442V123.72C168.922 124.46 168.212 125.06 167.312 125.52C166.432 125.96 165.452 126.18 164.372 126.18C163.092 126.18 161.962 125.9 160.982 125.34C160.002 124.76 159.242 123.93 158.702 122.85C158.162 121.77 157.892 120.5 157.892 119.04V109.26H162.992V118.35C162.992 119.47 163.282 120.34 163.862 120.96C164.442 121.58 165.222 121.89 166.202 121.89C167.202 121.89 167.992 121.58 168.572 120.96C169.152 120.34 169.442 119.47 169.442 118.35V109.26H174.572ZM188.456 109.08C190.416 109.08 191.976 109.72 193.136 111C194.316 112.26 194.906 114 194.906 116.22V126H189.806V116.91C189.806 115.79 189.516 114.92 188.936 114.3C188.356 113.68 187.576 113.37 186.596 113.37C185.616 113.37 184.836 113.68 184.256 114.3C183.676 114.92 183.386 115.79 183.386 116.91V126H178.256V109.26H183.386V111.48C183.906 110.74 184.606 110.16 185.486 109.74C186.366 109.3 187.356 109.08 188.456 109.08ZM207.801 121.65V126H205.191C203.331 126 201.881 125.55 200.841 124.65C199.801 123.73 199.281 122.24 199.281 120.18V113.52H197.241V109.26H199.281V105.18H204.411V109.26H207.771V113.52H204.411V120.24C204.411 120.74 204.531 121.1 204.771 121.32C205.011 121.54 205.411 121.65 205.971 121.65H207.801Z" fill="#393939"/>
<rect y="402" width="427" height="38" rx="5" fill="#E9374A"/>
<path d="M196.792 425.084C196.176 425.084 195.624 424.984 195.136 424.784C194.648 424.584 194.256 424.288 193.96 423.896C193.672 423.504 193.52 423.032 193.504 422.48H195.688C195.72 422.792 195.828 423.032 196.012 423.2C196.196 423.36 196.436 423.44 196.732 423.44C197.036 423.44 197.276 423.372 197.452 423.236C197.628 423.092 197.716 422.896 197.716 422.648C197.716 422.44 197.644 422.268 197.5 422.132C197.364 421.996 197.192 421.884 196.984 421.796C196.784 421.708 196.496 421.608 196.12 421.496C195.576 421.328 195.132 421.16 194.788 420.992C194.444 420.824 194.148 420.576 193.9 420.248C193.652 419.92 193.528 419.492 193.528 418.964C193.528 418.18 193.812 417.568 194.38 417.128C194.948 416.68 195.688 416.456 196.6 416.456C197.528 416.456 198.276 416.68 198.844 417.128C199.412 417.568 199.716 418.184 199.756 418.976H197.536C197.52 418.704 197.42 418.492 197.236 418.34C197.052 418.18 196.816 418.1 196.528 418.1C196.28 418.1 196.08 418.168 195.928 418.304C195.776 418.432 195.7 418.62 195.7 418.868C195.7 419.14 195.828 419.352 196.084 419.504C196.34 419.656 196.74 419.82 197.284 419.996C197.828 420.18 198.268 420.356 198.604 420.524C198.948 420.692 199.244 420.936 199.492 421.256C199.74 421.576 199.864 421.988 199.864 422.492C199.864 422.972 199.74 423.408 199.492 423.8C199.252 424.192 198.9 424.504 198.436 424.736C197.972 424.968 197.424 425.084 196.792 425.084ZM202.159 417.608C201.799 417.608 201.503 417.504 201.271 417.296C201.047 417.08 200.935 416.816 200.935 416.504C200.935 416.184 201.047 415.92 201.271 415.712C201.503 415.496 201.799 415.388 202.159 415.388C202.511 415.388 202.799 415.496 203.023 415.712C203.255 415.92 203.371 416.184 203.371 416.504C203.371 416.816 203.255 417.08 203.023 417.296C202.799 417.504 202.511 417.608 202.159 417.608ZM203.179 418.304V425H201.127V418.304H203.179ZM207.21 418.208C207.682 418.208 208.094 418.304 208.446 418.496C208.806 418.688 209.082 418.94 209.274 419.252V418.304H211.326V424.988C211.326 425.604 211.202 426.16 210.954 426.656C210.714 427.16 210.342 427.56 209.838 427.856C209.342 428.152 208.722 428.3 207.978 428.3C206.986 428.3 206.182 428.064 205.566 427.592C204.95 427.128 204.598 426.496 204.51 425.696H206.538C206.602 425.952 206.754 426.152 206.994 426.296C207.234 426.448 207.53 426.524 207.882 426.524C208.306 426.524 208.642 426.4 208.89 426.152C209.146 425.912 209.274 425.524 209.274 424.988V424.04C209.074 424.352 208.798 424.608 208.446 424.808C208.094 425 207.682 425.096 207.21 425.096C206.658 425.096 206.158 424.956 205.71 424.676C205.262 424.388 204.906 423.984 204.642 423.464C204.386 422.936 204.258 422.328 204.258 421.64C204.258 420.952 204.386 420.348 204.642 419.828C204.906 419.308 205.262 418.908 205.71 418.628C206.158 418.348 206.658 418.208 207.21 418.208ZM209.274 421.652C209.274 421.14 209.13 420.736 208.842 420.44C208.562 420.144 208.218 419.996 207.81 419.996C207.402 419.996 207.054 420.144 206.766 420.44C206.486 420.728 206.346 421.128 206.346 421.64C206.346 422.152 206.486 422.56 206.766 422.864C207.054 423.16 207.402 423.308 207.81 423.308C208.218 423.308 208.562 423.16 208.842 422.864C209.13 422.568 209.274 422.164 209.274 421.652ZM216.891 418.232C217.675 418.232 218.299 418.488 218.763 419C219.235 419.504 219.471 420.2 219.471 421.088V425H217.431V421.364C217.431 420.916 217.315 420.568 217.083 420.32C216.851 420.072 216.539 419.948 216.147 419.948C215.755 419.948 215.443 420.072 215.211 420.32C214.979 420.568 214.863 420.916 214.863 421.364V425H212.811V418.304H214.863V419.192C215.071 418.896 215.351 418.664 215.703 418.496C216.055 418.32 216.451 418.232 216.891 418.232ZM224.471 417.608C224.111 417.608 223.815 417.504 223.583 417.296C223.359 417.08 223.247 416.816 223.247 416.504C223.247 416.184 223.359 415.92 223.583 415.712C223.815 415.496 224.111 415.388 224.471 415.388C224.823 415.388 225.111 415.496 225.335 415.712C225.567 415.92 225.683 416.184 225.683 416.504C225.683 416.816 225.567 417.08 225.335 417.296C225.111 417.504 224.823 417.608 224.471 417.608ZM225.491 418.304V425H223.439V418.304H225.491ZM231.058 418.232C231.842 418.232 232.466 418.488 232.93 419C233.402 419.504 233.638 420.2 233.638 421.088V425H231.598V421.364C231.598 420.916 231.482 420.568 231.25 420.32C231.018 420.072 230.706 419.948 230.314 419.948C229.922 419.948 229.61 420.072 229.378 420.32C229.146 420.568 229.03 420.916 229.03 421.364V425H226.978V418.304H229.03V419.192C229.238 418.896 229.518 418.664 229.87 418.496C230.222 418.32 230.618 418.232 231.058 418.232Z" fill="white"/>
<rect y="178" width="427" height="38" rx="5" fill="white"/>
<path d="M33.3334 193.667H22.6667C21.9303 193.667 21.3334 194.264 21.3334 195V201.667C21.3334 202.403 21.9303 203 22.6667 203H33.3334C34.0698 203 34.6667 202.403 34.6667 201.667V195C34.6667 194.264 34.0698 193.667 33.3334 193.667Z" stroke="#203060" stroke-linecap="round" stroke-linejoin="round"/>
<path d="M30.6667 203V192.333C30.6667 191.98 30.5262 191.641 30.2762 191.391C30.0261 191.14 29.687 191 29.3334 191H26.6667C26.3131 191 25.9739 191.14 25.7239 191.391C25.4739 191.641 25.3334 191.98 25.3334 192.333V203" stroke="#203060" stroke-linecap="round" stroke-linejoin="round"/>
<path d="M46.516 196.812C46.516 195.996 46.7 195.264 47.068 194.616C47.436 193.96 47.936 193.448 48.568 193.08C49.208 192.712 49.916 192.528 50.692 192.528C51.604 192.528 52.4 192.748 53.08 193.188C53.76 193.628 54.256 194.252 54.568 195.06H53.26C53.028 194.556 52.692 194.168 52.252 193.896C51.82 193.624 51.3 193.488 50.692 193.488C50.108 193.488 49.584 193.624 49.12 193.896C48.656 194.168 48.292 194.556 48.028 195.06C47.764 195.556 47.632 196.14 47.632 196.812C47.632 197.476 47.764 198.06 48.028 198.564C48.292 199.06 48.656 199.444 49.12 199.716C49.584 199.988 50.108 200.124 50.692 200.124C51.3 200.124 51.82 199.992 52.252 199.728C52.692 199.456 53.028 199.068 53.26 198.564H54.568C54.256 199.364 53.76 199.984 53.08 200.424C52.4 200.856 51.604 201.072 50.692 201.072C49.916 201.072 49.208 200.892 48.568 200.532C47.936 200.164 47.436 199.656 47.068 199.008C46.7 198.36 46.516 197.628 46.516 196.812ZM59.0615 201.108C58.4455 201.108 57.8855 200.968 57.3815 200.688C56.8855 200.408 56.4935 200.012 56.2055 199.5C55.9255 198.98 55.7855 198.38 55.7855 197.7C55.7855 197.028 55.9295 196.436 56.2175 195.924C56.5135 195.404 56.9135 195.008 57.4175 194.736C57.9215 194.456 58.4855 194.316 59.1095 194.316C59.7335 194.316 60.2975 194.456 60.8015 194.736C61.3055 195.008 61.7015 195.4 61.9895 195.912C62.2855 196.424 62.4335 197.02 62.4335 197.7C62.4335 198.38 62.2815 198.98 61.9775 199.5C61.6815 200.012 61.2775 200.408 60.7655 200.688C60.2535 200.968 59.6855 201.108 59.0615 201.108ZM59.0615 200.148C59.4535 200.148 59.8215 200.056 60.1655 199.872C60.5095 199.688 60.7855 199.412 60.9935 199.044C61.2095 198.676 61.3175 198.228 61.3175 197.7C61.3175 197.172 61.2135 196.724 61.0055 196.356C60.7975 195.988 60.5255 195.716 60.1895 195.54C59.8535 195.356 59.4895 195.264 59.0975 195.264C58.6975 195.264 58.3295 195.356 57.9935 195.54C57.6655 195.716 57.4015 195.988 57.2015 196.356C57.0015 196.724 56.9015 197.172 56.9015 197.7C56.9015 198.236 56.9975 198.688 57.1895 199.056C57.3895 199.424 57.6535 199.7 57.9815 199.884C58.3095 200.06 58.6695 200.148 59.0615 200.148ZM71.7773 194.304C72.2893 194.304 72.7453 194.412 73.1453 194.628C73.5453 194.836 73.8613 195.152 74.0933 195.576C74.3253 196 74.4413 196.516 74.4413 197.124V201H73.3613V197.28C73.3613 196.624 73.1973 196.124 72.8693 195.78C72.5493 195.428 72.1133 195.252 71.5613 195.252C70.9933 195.252 70.5413 195.436 70.2053 195.804C69.8693 196.164 69.7013 196.688 69.7013 197.376V201H68.6213V197.28C68.6213 196.624 68.4573 196.124 68.1293 195.78C67.8093 195.428 67.3733 195.252 66.8213 195.252C66.2533 195.252 65.8013 195.436 65.4653 195.804C65.1293 196.164 64.9613 196.688 64.9613 197.376V201H63.8693V194.424H64.9613V195.372C65.1773 195.028 65.4653 194.764 65.8253 194.58C66.1933 194.396 66.5973 194.304 67.0373 194.304C67.5893 194.304 68.0773 194.428 68.5013 194.676C68.9253 194.924 69.2413 195.288 69.4493 195.768C69.6333 195.304 69.9373 194.944 70.3613 194.688C70.7853 194.432 71.2573 194.304 71.7773 194.304ZM77.3246 195.636C77.5406 195.26 77.8606 194.948 78.2846 194.7C78.7166 194.444 79.2166 194.316 79.7846 194.316C80.3686 194.316 80.8966 194.456 81.3686 194.736C81.8486 195.016 82.2246 195.412 82.4966 195.924C82.7686 196.428 82.9046 197.016 82.9046 197.688C82.9046 198.352 82.7686 198.944 82.4966 199.464C82.2246 199.984 81.8486 200.388 81.3686 200.676C80.8966 200.964 80.3686 201.108 79.7846 201.108C79.2246 201.108 78.7286 200.984 78.2966 200.736C77.8726 200.48 77.5486 200.164 77.3246 199.788V204.12H76.2326V194.424H77.3246V195.636ZM81.7886 197.688C81.7886 197.192 81.6886 196.76 81.4886 196.392C81.2886 196.024 81.0166 195.744 80.6726 195.552C80.3366 195.36 79.9646 195.264 79.5566 195.264C79.1566 195.264 78.7846 195.364 78.4406 195.564C78.1046 195.756 77.8326 196.04 77.6246 196.416C77.4246 196.784 77.3246 197.212 77.3246 197.7C77.3246 198.196 77.4246 198.632 77.6246 199.008C77.8326 199.376 78.1046 199.66 78.4406 199.86C78.7846 200.052 79.1566 200.148 79.5566 200.148C79.9646 200.148 80.3366 200.052 80.6726 199.86C81.0166 199.66 81.2886 199.376 81.4886 199.008C81.6886 198.632 81.7886 198.192 81.7886 197.688ZM83.934 197.688C83.934 197.016 84.07 196.428 84.342 195.924C84.614 195.412 84.986 195.016 85.458 194.736C85.938 194.456 86.47 194.316 87.054 194.316C87.63 194.316 88.13 194.44 88.554 194.688C88.978 194.936 89.294 195.248 89.502 195.624V194.424H90.606V201H89.502V199.776C89.286 200.16 88.962 200.48 88.53 200.736C88.106 200.984 87.61 201.108 87.042 201.108C86.458 201.108 85.93 200.964 85.458 200.676C84.986 200.388 84.614 199.984 84.342 199.464C84.07 198.944 83.934 198.352 83.934 197.688ZM89.502 197.7C89.502 197.204 89.402 196.772 89.202 196.404C89.002 196.036 88.73 195.756 88.386 195.564C88.05 195.364 87.678 195.264 87.27 195.264C86.862 195.264 86.49 195.36 86.154 195.552C85.818 195.744 85.55 196.024 85.35 196.392C85.15 196.76 85.05 197.192 85.05 197.688C85.05 198.192 85.15 198.632 85.35 199.008C85.55 199.376 85.818 199.66 86.154 199.86C86.49 200.052 86.862 200.148 87.27 200.148C87.678 200.148 88.05 200.052 88.386 199.86C88.73 199.66 89.002 199.376 89.202 199.008C89.402 198.632 89.502 198.196 89.502 197.7ZM95.6553 194.304C96.4553 194.304 97.1033 194.548 97.5993 195.036C98.0953 195.516 98.3433 196.212 98.3433 197.124V201H97.2633V197.28C97.2633 196.624 97.0993 196.124 96.7713 195.78C96.4433 195.428 95.9953 195.252 95.4273 195.252C94.8513 195.252 94.3913 195.432 94.0473 195.792C93.7113 196.152 93.5433 196.676 93.5433 197.364V201H92.4513V194.424H93.5433V195.36C93.7593 195.024 94.0513 194.764 94.4193 194.58C94.7953 194.396 95.2073 194.304 95.6553 194.304ZM105.791 194.424L101.831 204.096H100.703L101.999 200.928L99.3471 194.424H100.559L102.623 199.752L104.663 194.424H105.791ZM111.18 192.636V201H110.088V192.636H111.18ZM115.645 192.636C116.557 192.636 117.345 192.808 118.009 193.152C118.681 193.488 119.193 193.972 119.545 194.604C119.905 195.236 120.085 195.98 120.085 196.836C120.085 197.692 119.905 198.436 119.545 199.068C119.193 199.692 118.681 200.172 118.009 200.508C117.345 200.836 116.557 201 115.645 201H113.041V192.636H115.645ZM115.645 200.1C116.725 200.1 117.549 199.816 118.117 199.248C118.685 198.672 118.969 197.868 118.969 196.836C118.969 195.796 118.681 194.984 118.105 194.4C117.537 193.816 116.717 193.524 115.645 193.524H114.133V200.1H115.645Z" fill="#203060"/>
<rect y="256" width="427" height="38" rx="5" fill="white"/>
<path d="M32.6667 274.333H23.3333C22.597 274.333 22 274.93 22 275.667V280.333C22 281.07 22.597 281.667 23.3333 281.667H32.6667C33.403 281.667 34 281.07 34 280.333V275.667C34 274.93 33.403 274.333 32.6667 274.333Z" stroke="#203060" stroke-linecap="round" stroke-linejoin="round"/>
<path d="M24.6666 274.333V271.667C24.6666 270.783 25.0178 269.935 25.6429 269.31C26.2681 268.685 27.1159 268.333 28 268.333C28.884 268.333 29.7319 268.685 30.357 269.31C30.9821 269.935 31.3333 270.783 31.3333 271.667V274.333" stroke="#203060" stroke-linecap="round" stroke-linejoin="round"/>
<path d="M52.516 273.084C52.516 273.78 52.276 274.36 51.796 274.824C51.324 275.28 50.6 275.508 49.624 275.508H48.016V279H46.924V270.636H49.624C50.568 270.636 51.284 270.864 51.772 271.32C52.268 271.776 52.516 272.364 52.516 273.084ZM49.624 274.608C50.232 274.608 50.68 274.476 50.968 274.212C51.256 273.948 51.4 273.572 51.4 273.084C51.4 272.052 50.808 271.536 49.624 271.536H48.016V274.608H49.624ZM53.4652 275.688C53.4652 275.016 53.6012 274.428 53.8732 273.924C54.1452 273.412 54.5172 273.016 54.9892 272.736C55.4692 272.456 56.0012 272.316 56.5852 272.316C57.1612 272.316 57.6612 272.44 58.0852 272.688C58.5092 272.936 58.8252 273.248 59.0332 273.624V272.424H60.1372V279H59.0332V277.776C58.8172 278.16 58.4932 278.48 58.0612 278.736C57.6372 278.984 57.1412 279.108 56.5732 279.108C55.9892 279.108 55.4612 278.964 54.9892 278.676C54.5172 278.388 54.1452 277.984 53.8732 277.464C53.6012 276.944 53.4652 276.352 53.4652 275.688ZM59.0332 275.7C59.0332 275.204 58.9332 274.772 58.7332 274.404C58.5332 274.036 58.2612 273.756 57.9172 273.564C57.5812 273.364 57.2092 273.264 56.8012 273.264C56.3932 273.264 56.0212 273.36 55.6852 273.552C55.3492 273.744 55.0812 274.024 54.8812 274.392C54.6812 274.76 54.5812 275.192 54.5812 275.688C54.5812 276.192 54.6812 276.632 54.8812 277.008C55.0812 277.376 55.3492 277.66 55.6852 277.86C56.0212 278.052 56.3932 278.148 56.8012 278.148C57.2092 278.148 57.5812 278.052 57.9172 277.86C58.2612 277.66 58.5332 277.376 58.7332 277.008C58.9332 276.632 59.0332 276.196 59.0332 275.7ZM64.3106 279.108C63.8066 279.108 63.3546 279.024 62.9546 278.856C62.5546 278.68 62.2386 278.44 62.0066 278.136C61.7746 277.824 61.6466 277.468 61.6226 277.068H62.7506C62.7826 277.396 62.9346 277.664 63.2066 277.872C63.4866 278.08 63.8506 278.184 64.2986 278.184C64.7146 278.184 65.0426 278.092 65.2826 277.908C65.5226 277.724 65.6426 277.492 65.6426 277.212C65.6426 276.924 65.5146 276.712 65.2586 276.576C65.0026 276.432 64.6066 276.292 64.0706 276.156C63.5826 276.028 63.1826 275.9 62.8706 275.772C62.5666 275.636 62.3026 275.44 62.0786 275.184C61.8626 274.92 61.7546 274.576 61.7546 274.152C61.7546 273.816 61.8546 273.508 62.0546 273.228C62.2546 272.948 62.5386 272.728 62.9066 272.568C63.2746 272.4 63.6946 272.316 64.1666 272.316C64.8946 272.316 65.4826 272.5 65.9306 272.868C66.3786 273.236 66.6186 273.74 66.6506 274.38H65.5586C65.5346 274.036 65.3946 273.76 65.1386 273.552C64.8906 273.344 64.5546 273.24 64.1306 273.24C63.7386 273.24 63.4266 273.324 63.1946 273.492C62.9626 273.66 62.8466 273.88 62.8466 274.152C62.8466 274.368 62.9146 274.548 63.0506 274.692C63.1946 274.828 63.3706 274.94 63.5786 275.028C63.7946 275.108 64.0906 275.2 64.4666 275.304C64.9386 275.432 65.3226 275.56 65.6186 275.688C65.9146 275.808 66.1666 275.992 66.3746 276.24C66.5906 276.488 66.7026 276.812 66.7106 277.212C66.7106 277.572 66.6106 277.896 66.4106 278.184C66.2106 278.472 65.9266 278.7 65.5586 278.868C65.1986 279.028 64.7826 279.108 64.3106 279.108ZM70.5801 279.108C70.0761 279.108 69.6241 279.024 69.2241 278.856C68.8241 278.68 68.5081 278.44 68.2761 278.136C68.0441 277.824 67.9161 277.468 67.8921 277.068H69.0201C69.0521 277.396 69.2041 277.664 69.4761 277.872C69.7561 278.08 70.1201 278.184 70.5681 278.184C70.9841 278.184 71.3121 278.092 71.5521 277.908C71.7921 277.724 71.9121 277.492 71.9121 277.212C71.9121 276.924 71.7841 276.712 71.5281 276.576C71.2721 276.432 70.8761 276.292 70.3401 276.156C69.8521 276.028 69.4521 275.9 69.1401 275.772C68.8361 275.636 68.5721 275.44 68.3481 275.184C68.1321 274.92 68.0241 274.576 68.0241 274.152C68.0241 273.816 68.1241 273.508 68.3241 273.228C68.5241 272.948 68.8081 272.728 69.1761 272.568C69.5441 272.4 69.9641 272.316 70.4361 272.316C71.1641 272.316 71.7521 272.5 72.2001 272.868C72.6481 273.236 72.8881 273.74 72.9201 274.38H71.8281C71.8041 274.036 71.6641 273.76 71.4081 273.552C71.1601 273.344 70.8241 273.24 70.4001 273.24C70.0081 273.24 69.6961 273.324 69.4641 273.492C69.2321 273.66 69.1161 273.88 69.1161 274.152C69.1161 274.368 69.1841 274.548 69.3201 274.692C69.4641 274.828 69.6401 274.94 69.8481 275.028C70.0641 275.108 70.3601 275.2 70.7361 275.304C71.2081 275.432 71.5921 275.56 71.8881 275.688C72.1841 275.808 72.4361 275.992 72.6441 276.24C72.8601 276.488 72.9721 276.812 72.9801 277.212C72.9801 277.572 72.8801 277.896 72.6801 278.184C72.4801 278.472 72.1961 278.7 71.8281 278.868C71.4681 279.028 71.0521 279.108 70.5801 279.108ZM83.2817 272.424L81.2297 279H80.1017L78.5177 273.78L76.9337 279H75.8057L73.7417 272.424H74.8577L76.3697 277.944L78.0017 272.424H79.1177L80.7137 277.956L82.2017 272.424H83.2817ZM87.2334 279.108C86.6174 279.108 86.0574 278.968 85.5534 278.688C85.0574 278.408 84.6654 278.012 84.3774 277.5C84.0974 276.98 83.9574 276.38 83.9574 275.7C83.9574 275.028 84.1014 274.436 84.3894 273.924C84.6854 273.404 85.0854 273.008 85.5894 272.736C86.0934 272.456 86.6574 272.316 87.2814 272.316C87.9054 272.316 88.4694 272.456 88.9734 272.736C89.4774 273.008 89.8734 273.4 90.1614 273.912C90.4574 274.424 90.6054 275.02 90.6054 275.7C90.6054 276.38 90.4534 276.98 90.1494 277.5C89.8534 278.012 89.4494 278.408 88.9374 278.688C88.4254 278.968 87.8574 279.108 87.2334 279.108ZM87.2334 278.148C87.6254 278.148 87.9934 278.056 88.3374 277.872C88.6814 277.688 88.9574 277.412 89.1654 277.044C89.3814 276.676 89.4894 276.228 89.4894 275.7C89.4894 275.172 89.3854 274.724 89.1774 274.356C88.9694 273.988 88.6974 273.716 88.3614 273.54C88.0254 273.356 87.6614 273.264 87.2694 273.264C86.8694 273.264 86.5014 273.356 86.1654 273.54C85.8374 273.716 85.5734 273.988 85.3734 274.356C85.1734 274.724 85.0734 275.172 85.0734 275.7C85.0734 276.236 85.1694 276.688 85.3614 277.056C85.5614 277.424 85.8254 277.7 86.1534 277.884C86.4814 278.06 86.8414 278.148 87.2334 278.148ZM93.1332 273.492C93.3252 273.116 93.5972 272.824 93.9492 272.616C94.3092 272.408 94.7452 272.304 95.2572 272.304V273.432H94.9692C93.7452 273.432 93.1332 274.096 93.1332 275.424V279H92.0412V272.424H93.1332V273.492ZM96.1098 275.688C96.1098 275.016 96.2458 274.428 96.5178 273.924C96.7898 273.412 97.1618 273.016 97.6338 272.736C98.1138 272.456 98.6498 272.316 99.2418 272.316C99.7538 272.316 100.23 272.436 100.67 272.676C101.11 272.908 101.446 273.216 101.678 273.6V270.12H102.782V279H101.678V277.764C101.462 278.156 101.142 278.48 100.718 278.736C100.294 278.984 99.7978 279.108 99.2298 279.108C98.6458 279.108 98.1138 278.964 97.6338 278.676C97.1618 278.388 96.7898 277.984 96.5178 277.464C96.2458 276.944 96.1098 276.352 96.1098 275.688ZM101.678 275.7C101.678 275.204 101.578 274.772 101.378 274.404C101.178 274.036 100.906 273.756 100.562 273.564C100.226 273.364 99.8538 273.264 99.4458 273.264C99.0378 273.264 98.6658 273.36 98.3298 273.552C97.9938 273.744 97.7258 274.024 97.5258 274.392C97.3258 274.76 97.2258 275.192 97.2258 275.688C97.2258 276.192 97.3258 276.632 97.5258 277.008C97.7258 277.376 97.9938 277.66 98.3298 277.86C98.6658 278.052 99.0378 278.148 99.4458 278.148C99.8538 278.148 100.226 278.052 100.562 277.86C100.906 277.66 101.178 277.376 101.378 277.008C101.578 276.632 101.678 276.196 101.678 275.7Z" fill="#203060"/>
<path d="M31.328 347L29.336 343.58H28.016V347H26.924V338.636H29.624C30.256 338.636 30.788 338.744 31.22 338.96C31.66 339.176 31.988 339.468 32.204 339.836C32.42 340.204 32.528 340.624 32.528 341.096C32.528 341.672 32.36 342.18 32.024 342.62C31.696 343.06 31.2 343.352 30.536 343.496L32.636 347H31.328ZM28.016 342.704H29.624C30.216 342.704 30.66 342.56 30.956 342.272C31.252 341.976 31.4 341.584 31.4 341.096C31.4 340.6 31.252 340.216 30.956 339.944C30.668 339.672 30.224 339.536 29.624 339.536H28.016V342.704ZM40.2248 343.46C40.2248 343.668 40.2128 343.888 40.1888 344.12H34.9328C34.9728 344.768 35.1928 345.276 35.5928 345.644C36.0008 346.004 36.4928 346.184 37.0688 346.184C37.5408 346.184 37.9328 346.076 38.2448 345.86C38.5648 345.636 38.7888 345.34 38.9168 344.972H40.0928C39.9168 345.604 39.5648 346.12 39.0368 346.52C38.5088 346.912 37.8528 347.108 37.0688 347.108C36.4448 347.108 35.8848 346.968 35.3888 346.688C34.9008 346.408 34.5168 346.012 34.2368 345.5C33.9568 344.98 33.8168 344.38 33.8168 343.7C33.8168 343.02 33.9528 342.424 34.2248 341.912C34.4968 341.4 34.8768 341.008 35.3648 340.736C35.8608 340.456 36.4288 340.316 37.0688 340.316C37.6928 340.316 38.2448 340.452 38.7248 340.724C39.2048 340.996 39.5728 341.372 39.8288 341.852C40.0928 342.324 40.2248 342.86 40.2248 343.46ZM39.0968 343.232C39.0968 342.816 39.0048 342.46 38.8208 342.164C38.6368 341.86 38.3848 341.632 38.0648 341.48C37.7528 341.32 37.4048 341.24 37.0208 341.24C36.4688 341.24 35.9968 341.416 35.6048 341.768C35.2208 342.12 35.0008 342.608 34.9448 343.232H39.0968ZM49.5742 340.304C50.0862 340.304 50.5422 340.412 50.9422 340.628C51.3422 340.836 51.6582 341.152 51.8902 341.576C52.1222 342 52.2382 342.516 52.2382 343.124V347H51.1582V343.28C51.1582 342.624 50.9942 342.124 50.6662 341.78C50.3462 341.428 49.9102 341.252 49.3582 341.252C48.7902 341.252 48.3382 341.436 48.0022 341.804C47.6662 342.164 47.4982 342.688 47.4982 343.376V347H46.4182V343.28C46.4182 342.624 46.2542 342.124 45.9262 341.78C45.6062 341.428 45.1702 341.252 44.6182 341.252C44.0502 341.252 43.5982 341.436 43.2622 341.804C42.9262 342.164 42.7582 342.688 42.7582 343.376V347H41.6662V340.424H42.7582V341.372C42.9742 341.028 43.2622 340.764 43.6222 340.58C43.9902 340.396 44.3942 340.304 44.8342 340.304C45.3862 340.304 45.8742 340.428 46.2982 340.676C46.7222 340.924 47.0382 341.288 47.2462 341.768C47.4302 341.304 47.7342 340.944 48.1582 340.688C48.5822 340.432 49.0542 340.304 49.5742 340.304ZM60.0295 343.46C60.0295 343.668 60.0175 343.888 59.9935 344.12H54.7375C54.7775 344.768 54.9975 345.276 55.3975 345.644C55.8055 346.004 56.2975 346.184 56.8735 346.184C57.3455 346.184 57.7375 346.076 58.0495 345.86C58.3695 345.636 58.5935 345.34 58.7215 344.972H59.8975C59.7215 345.604 59.3695 346.12 58.8415 346.52C58.3135 346.912 57.6575 347.108 56.8735 347.108C56.2495 347.108 55.6895 346.968 55.1935 346.688C54.7055 346.408 54.3215 346.012 54.0415 345.5C53.7615 344.98 53.6215 344.38 53.6215 343.7C53.6215 343.02 53.7575 342.424 54.0295 341.912C54.3015 341.4 54.6815 341.008 55.1695 340.736C55.6655 340.456 56.2335 340.316 56.8735 340.316C57.4975 340.316 58.0495 340.452 58.5295 340.724C59.0095 340.996 59.3775 341.372 59.6335 341.852C59.8975 342.324 60.0295 342.86 60.0295 343.46ZM58.9015 343.232C58.9015 342.816 58.8095 342.46 58.6255 342.164C58.4415 341.86 58.1895 341.632 57.8695 341.48C57.5575 341.32 57.2095 341.24 56.8255 341.24C56.2735 341.24 55.8015 341.416 55.4095 341.768C55.0255 342.12 54.8055 342.608 54.7495 343.232H58.9015ZM69.3789 340.304C69.8909 340.304 70.3469 340.412 70.7469 340.628C71.1469 340.836 71.4629 341.152 71.6949 341.576C71.9269 342 72.0429 342.516 72.0429 343.124V347H70.9629V343.28C70.9629 342.624 70.7989 342.124 70.4709 341.78C70.1509 341.428 69.7149 341.252 69.1629 341.252C68.5949 341.252 68.1429 341.436 67.8069 341.804C67.4709 342.164 67.3029 342.688 67.3029 343.376V347H66.2229V343.28C66.2229 342.624 66.0589 342.124 65.7309 341.78C65.4109 341.428 64.9749 341.252 64.4229 341.252C63.8549 341.252 63.4029 341.436 63.0669 341.804C62.7309 342.164 62.5629 342.688 62.5629 343.376V347H61.4709V340.424H62.5629V341.372C62.7789 341.028 63.0669 340.764 63.4269 340.58C63.7949 340.396 64.1989 340.304 64.6389 340.304C65.1909 340.304 65.6789 340.428 66.1029 340.676C66.5269 340.924 66.8429 341.288 67.0509 341.768C67.2349 341.304 67.5389 340.944 67.9629 340.688C68.3869 340.432 68.8589 340.304 69.3789 340.304ZM74.9262 341.648C75.1502 341.256 75.4782 340.936 75.9102 340.688C76.3422 340.44 76.8342 340.316 77.3862 340.316C77.9782 340.316 78.5102 340.456 78.9822 340.736C79.4542 341.016 79.8262 341.412 80.0982 341.924C80.3702 342.428 80.5062 343.016 80.5062 343.688C80.5062 344.352 80.3702 344.944 80.0982 345.464C79.8262 345.984 79.4502 346.388 78.9702 346.676C78.4982 346.964 77.9702 347.108 77.3862 347.108C76.8182 347.108 76.3182 346.984 75.8862 346.736C75.4622 346.488 75.1422 346.172 74.9262 345.788V347H73.8342V338.12H74.9262V341.648ZM79.3902 343.688C79.3902 343.192 79.2902 342.76 79.0902 342.392C78.8902 342.024 78.6182 341.744 78.2742 341.552C77.9382 341.36 77.5662 341.264 77.1582 341.264C76.7582 341.264 76.3862 341.364 76.0422 341.564C75.7062 341.756 75.4342 342.04 75.2262 342.416C75.0262 342.784 74.9262 343.212 74.9262 343.7C74.9262 344.196 75.0262 344.632 75.2262 345.008C75.4342 345.376 75.7062 345.66 76.0422 345.86C76.3862 346.052 76.7582 346.148 77.1582 346.148C77.5662 346.148 77.9382 346.052 78.2742 345.86C78.6182 345.66 78.8902 345.376 79.0902 345.008C79.2902 344.632 79.3902 344.192 79.3902 343.688ZM87.9435 343.46C87.9435 343.668 87.9315 343.888 87.9075 344.12H82.6515C82.6915 344.768 82.9115 345.276 83.3115 345.644C83.7195 346.004 84.2115 346.184 84.7875 346.184C85.2595 346.184 85.6515 346.076 85.9635 345.86C86.2835 345.636 86.5075 345.34 86.6355 344.972H87.8115C87.6355 345.604 87.2835 346.12 86.7555 346.52C86.2275 346.912 85.5715 347.108 84.7875 347.108C84.1635 347.108 83.6035 346.968 83.1075 346.688C82.6195 346.408 82.2355 346.012 81.9555 345.5C81.6755 344.98 81.5355 344.38 81.5355 343.7C81.5355 343.02 81.6715 342.424 81.9435 341.912C82.2155 341.4 82.5955 341.008 83.0835 340.736C83.5795 340.456 84.1475 340.316 84.7875 340.316C85.4115 340.316 85.9635 340.452 86.4435 340.724C86.9235 340.996 87.2915 341.372 87.5475 341.852C87.8115 342.324 87.9435 342.86 87.9435 343.46ZM86.8155 343.232C86.8155 342.816 86.7235 342.46 86.5395 342.164C86.3555 341.86 86.1035 341.632 85.7835 341.48C85.4715 341.32 85.1235 341.24 84.7395 341.24C84.1875 341.24 83.7155 341.416 83.3235 341.768C82.9395 342.12 82.7195 342.608 82.6635 343.232H86.8155ZM90.4769 341.492C90.6689 341.116 90.9409 340.824 91.2929 340.616C91.6529 340.408 92.0889 340.304 92.6009 340.304V341.432H92.3129C91.0889 341.432 90.4769 342.096 90.4769 343.424V347H89.3849V340.424H90.4769V341.492ZM105.545 338.696V347H104.453V340.808L101.693 347H100.925L98.1527 340.796V347H97.0607V338.696H98.2367L101.309 345.56L104.381 338.696H105.545ZM113.397 343.46C113.397 343.668 113.385 343.888 113.361 344.12H108.105C108.145 344.768 108.365 345.276 108.765 345.644C109.173 346.004 109.665 346.184 110.241 346.184C110.713 346.184 111.105 346.076 111.417 345.86C111.737 345.636 111.961 345.34 112.089 344.972H113.265C113.089 345.604 112.737 346.12 112.209 346.52C111.681 346.912 111.025 347.108 110.241 347.108C109.617 347.108 109.057 346.968 108.561 346.688C108.073 346.408 107.689 346.012 107.409 345.5C107.129 344.98 106.989 344.38 106.989 343.7C106.989 343.02 107.125 342.424 107.397 341.912C107.669 341.4 108.049 341.008 108.537 340.736C109.033 340.456 109.601 340.316 110.241 340.316C110.865 340.316 111.417 340.452 111.897 340.724C112.377 340.996 112.745 341.372 113.001 341.852C113.265 342.324 113.397 342.86 113.397 343.46ZM112.269 343.232C112.269 342.816 112.177 342.46 111.993 342.164C111.809 341.86 111.557 341.632 111.237 341.48C110.925 341.32 110.577 341.24 110.193 341.24C109.641 341.24 109.169 341.416 108.777 341.768C108.393 342.12 108.173 342.608 108.117 343.232H112.269Z" fill="#666666"/>
<rect x="0.5" y="335.5" width="15" height="15" rx="2.5" stroke="#D9D9D9"/>
</svg>
