<svg width="242" height="56" viewBox="0 0 242 56" fill="none" xmlns="http://www.w3.org/2000/svg">
<path d="M42 19C37.032 19 33 23.032 33 28C33 32.968 37.032 37 42 37C46.968 37 51 32.968 51 28C51 23.032 46.968 19 42 19ZM38.4 32.95C37.8033 32.95 37.231 32.7129 36.809 32.291C36.3871 31.869 36.15 31.2967 36.15 30.7C36.15 30.1033 36.3871 29.531 36.809 29.109C37.231 28.6871 37.8033 28.45 38.4 28.45C38.9967 28.45 39.569 28.6871 39.991 29.109C40.4129 29.531 40.65 30.1033 40.65 30.7C40.65 31.2967 40.4129 31.869 39.991 32.291C39.569 32.7129 38.9967 32.95 38.4 32.95ZM39.75 24.4C39.75 23.8033 39.9871 23.231 40.409 22.809C40.831 22.3871 41.4033 22.15 42 22.15C42.5967 22.15 43.169 22.3871 43.591 22.809C44.0129 23.231 44.25 23.8033 44.25 24.4C44.25 24.9967 44.0129 25.569 43.591 25.991C43.169 26.4129 42.5967 26.65 42 26.65C41.4033 26.65 40.831 26.4129 40.409 25.991C39.9871 25.569 39.75 24.9967 39.75 24.4ZM45.6 32.95C45.0033 32.95 44.431 32.7129 44.009 32.291C43.5871 31.869 43.35 31.2967 43.35 30.7C43.35 30.1033 43.5871 29.531 44.009 29.109C44.431 28.6871 45.0033 28.45 45.6 28.45C46.1967 28.45 46.769 28.6871 47.191 29.109C47.6129 29.531 47.85 30.1033 47.85 30.7C47.85 31.2967 47.6129 31.869 47.191 32.291C46.769 32.7129 46.1967 32.95 45.6 32.95Z" fill="#B2B2B2"/>
<path d="M86.096 22.848V24.032H83.056V34H81.6V24.032H78.544V22.848H86.096ZM87.3443 29.584C87.3443 28.688 87.5256 27.904 87.8883 27.232C88.2509 26.5493 88.7469 26.0213 89.3763 25.648C90.0163 25.2747 90.7256 25.088 91.5043 25.088C92.2723 25.088 92.9389 25.2533 93.5043 25.584C94.0696 25.9147 94.4909 26.3307 94.7683 26.832V25.232H96.2403V34H94.7683V32.368C94.4803 32.88 94.0483 33.3067 93.4723 33.648C92.9069 33.9787 92.2456 34.144 91.4883 34.144C90.7096 34.144 90.0056 33.952 89.3763 33.568C88.7469 33.184 88.2509 32.6453 87.8883 31.952C87.5256 31.2587 87.3443 30.4693 87.3443 29.584ZM94.7683 29.6C94.7683 28.9387 94.6349 28.3627 94.3683 27.872C94.1016 27.3813 93.7389 27.008 93.2803 26.752C92.8323 26.4853 92.3363 26.352 91.7923 26.352C91.2483 26.352 90.7523 26.48 90.3043 26.736C89.8563 26.992 89.4989 27.3653 89.2323 27.856C88.9656 28.3467 88.8323 28.9227 88.8323 29.584C88.8323 30.256 88.9656 30.8427 89.2323 31.344C89.4989 31.8347 89.8563 32.2133 90.3043 32.48C90.7523 32.736 91.2483 32.864 91.7923 32.864C92.3363 32.864 92.8323 32.736 93.2803 32.48C93.7389 32.2133 94.1016 31.8347 94.3683 31.344C94.6349 30.8427 94.7683 30.2613 94.7683 29.6ZM101.805 34.144C101.133 34.144 100.53 34.032 99.9968 33.808C99.4634 33.5733 99.0421 33.2533 98.7328 32.848C98.4234 32.432 98.2528 31.9573 98.2208 31.424H99.7248C99.7674 31.8613 99.9701 32.2187 100.333 32.496C100.706 32.7733 101.191 32.912 101.789 32.912C102.343 32.912 102.781 32.7893 103.101 32.544C103.421 32.2987 103.581 31.9893 103.581 31.616C103.581 31.232 103.41 30.9493 103.069 30.768C102.727 30.576 102.199 30.3893 101.485 30.208C100.834 30.0373 100.301 29.8667 99.8848 29.696C99.4794 29.5147 99.1274 29.2533 98.8288 28.912C98.5408 28.56 98.3968 28.1013 98.3968 27.536C98.3968 27.088 98.5301 26.6773 98.7968 26.304C99.0634 25.9307 99.4421 25.6373 99.9328 25.424C100.423 25.2 100.983 25.088 101.613 25.088C102.583 25.088 103.367 25.3333 103.965 25.824C104.562 26.3147 104.882 26.9867 104.925 27.84H103.469C103.437 27.3813 103.25 27.0133 102.909 26.736C102.578 26.4587 102.13 26.32 101.565 26.32C101.042 26.32 100.626 26.432 100.317 26.656C100.007 26.88 99.8528 27.1733 99.8528 27.536C99.8528 27.824 99.9434 28.064 100.125 28.256C100.317 28.4373 100.551 28.5867 100.829 28.704C101.117 28.8107 101.511 28.9333 102.013 29.072C102.642 29.2427 103.154 29.4133 103.549 29.584C103.943 29.744 104.279 29.9893 104.557 30.32C104.845 30.6507 104.994 31.0827 105.005 31.616C105.005 32.096 104.871 32.528 104.605 32.912C104.338 33.296 103.959 33.6 103.469 33.824C102.989 34.0373 102.434 34.144 101.805 34.144ZM111.956 34L108.516 30.128V34H107.06V22.16H108.516V29.12L111.892 25.232H113.924L109.796 29.6L113.94 34H111.956Z" fill="#686868"/>
</svg>
