<svg width="242" height="56" viewBox="0 0 242 56" fill="none" xmlns="http://www.w3.org/2000/svg">
<g opacity="0.9">
<path d="M48 32.08C47.24 32.08 46.56 32.38 46.04 32.85L38.91 28.7C38.96 28.47 39 28.24 39 28C39 27.76 38.96 27.53 38.91 27.3L45.96 23.19C46.5 23.69 47.21 24 48 24C49.66 24 51 22.66 51 21C51 19.34 49.66 18 48 18C46.34 18 45 19.34 45 21C45 21.24 45.04 21.47 45.09 21.7L38.04 25.81C37.5 25.31 36.79 25 36 25C34.34 25 33 26.34 33 28C33 29.66 34.34 31 36 31C36.79 31 37.5 30.69 38.04 30.19L45.16 34.35C45.11 34.56 45.08 34.78 45.08 35C45.08 36.61 46.39 37.92 48 37.92C49.61 37.92 50.92 36.61 50.92 35C50.92 33.39 49.61 32.08 48 32.08ZM48 20C48.55 20 49 20.45 49 21C49 21.55 48.55 22 48 22C47.45 22 47 21.55 47 21C47 20.45 47.45 20 48 20ZM36 29C35.45 29 35 28.55 35 28C35 27.45 35.45 27 36 27C36.55 27 37 27.45 37 28C37 28.55 36.55 29 36 29ZM48 36.02C47.45 36.02 47 35.57 47 35.02C47 34.47 47.45 34.02 48 34.02C48.55 34.02 49 34.47 49 35.02C49 35.57 48.55 36.02 48 36.02Z" fill="#A8B0B9"/>
</g>
<path d="M85.824 31.52H80.96L80.064 34H78.528L82.56 22.912H84.24L88.256 34H86.72L85.824 31.52ZM85.408 30.336L83.392 24.704L81.376 30.336H85.408ZM94.2853 25.072C95.3519 25.072 96.2159 25.3973 96.8773 26.048C97.5386 26.688 97.8693 27.616 97.8693 28.832V34H96.4293V29.04C96.4293 28.1653 96.2106 27.4987 95.7733 27.04C95.3359 26.5707 94.7386 26.336 93.9813 26.336C93.2133 26.336 92.5999 26.576 92.1413 27.056C91.6933 27.536 91.4693 28.2347 91.4693 29.152V34H90.0133V25.232H91.4693V26.48C91.7573 26.032 92.1466 25.6853 92.6373 25.44C93.1386 25.1947 93.6879 25.072 94.2853 25.072ZM104.52 25.072C105.586 25.072 106.45 25.3973 107.112 26.048C107.773 26.688 108.104 27.616 108.104 28.832V34H106.664V29.04C106.664 28.1653 106.445 27.4987 106.008 27.04C105.57 26.5707 104.973 26.336 104.216 26.336C103.448 26.336 102.834 26.576 102.376 27.056C101.928 27.536 101.704 28.2347 101.704 29.152V34H100.248V25.232H101.704V26.48C101.992 26.032 102.381 25.6853 102.872 25.44C103.373 25.1947 103.922 25.072 104.52 25.072ZM114.306 34.144C113.485 34.144 112.738 33.9573 112.066 33.584C111.405 33.2107 110.882 32.6827 110.498 32C110.125 31.3067 109.938 30.5067 109.938 29.6C109.938 28.704 110.13 27.9147 110.514 27.232C110.909 26.5387 111.442 26.0107 112.114 25.648C112.786 25.2747 113.538 25.088 114.37 25.088C115.202 25.088 115.954 25.2747 116.626 25.648C117.298 26.0107 117.826 26.5333 118.21 27.216C118.605 27.8987 118.802 28.6933 118.802 29.6C118.802 30.5067 118.599 31.3067 118.194 32C117.799 32.6827 117.261 33.2107 116.578 33.584C115.895 33.9573 115.138 34.144 114.306 34.144ZM114.306 32.864C114.829 32.864 115.319 32.7413 115.778 32.496C116.237 32.2507 116.605 31.8827 116.882 31.392C117.17 30.9013 117.314 30.304 117.314 29.6C117.314 28.896 117.175 28.2987 116.898 27.808C116.621 27.3173 116.258 26.9547 115.81 26.72C115.362 26.4747 114.877 26.352 114.354 26.352C113.821 26.352 113.33 26.4747 112.882 26.72C112.445 26.9547 112.093 27.3173 111.826 27.808C111.559 28.2987 111.426 28.896 111.426 29.6C111.426 30.3147 111.554 30.9173 111.81 31.408C112.077 31.8987 112.429 32.2667 112.866 32.512C113.303 32.7467 113.783 32.864 114.306 32.864ZM128.492 25.232V34H127.036V32.704C126.759 33.152 126.37 33.504 125.868 33.76C125.378 34.0053 124.834 34.128 124.236 34.128C123.554 34.128 122.94 33.9893 122.396 33.712C121.852 33.424 121.42 32.9973 121.1 32.432C120.791 31.8667 120.636 31.1787 120.636 30.368V25.232H122.076V30.176C122.076 31.04 122.295 31.7067 122.732 32.176C123.17 32.6347 123.767 32.864 124.524 32.864C125.303 32.864 125.916 32.624 126.364 32.144C126.812 31.664 127.036 30.9653 127.036 30.048V25.232H128.492ZM135.223 25.072C136.289 25.072 137.153 25.3973 137.815 26.048C138.476 26.688 138.807 27.616 138.807 28.832V34H137.367V29.04C137.367 28.1653 137.148 27.4987 136.711 27.04C136.273 26.5707 135.676 26.336 134.919 26.336C134.151 26.336 133.537 26.576 133.079 27.056C132.631 27.536 132.407 28.2347 132.407 29.152V34H130.951V25.232H132.407V26.48C132.695 26.032 133.084 25.6853 133.575 25.44C134.076 25.1947 134.625 25.072 135.223 25.072ZM140.641 29.6C140.641 28.6933 140.822 27.904 141.185 27.232C141.548 26.5493 142.049 26.0213 142.689 25.648C143.34 25.2747 144.081 25.088 144.913 25.088C145.99 25.088 146.876 25.3493 147.569 25.872C148.273 26.3947 148.737 27.12 148.961 28.048H147.393C147.244 27.5147 146.95 27.0933 146.513 26.784C146.086 26.4747 145.553 26.32 144.913 26.32C144.081 26.32 143.409 26.608 142.897 27.184C142.385 27.7493 142.129 28.5547 142.129 29.6C142.129 30.656 142.385 31.472 142.897 32.048C143.409 32.624 144.081 32.912 144.913 32.912C145.553 32.912 146.086 32.7627 146.513 32.464C146.94 32.1653 147.233 31.7387 147.393 31.184H148.961C148.726 32.08 148.257 32.8 147.553 33.344C146.849 33.8773 145.969 34.144 144.913 34.144C144.081 34.144 143.34 33.9573 142.689 33.584C142.049 33.2107 141.548 32.6827 141.185 32C140.822 31.3173 140.641 30.5173 140.641 29.6ZM158.904 29.28C158.904 29.5573 158.888 29.8507 158.856 30.16H151.848C151.901 31.024 152.195 31.7013 152.728 32.192C153.272 32.672 153.928 32.912 154.696 32.912C155.325 32.912 155.848 32.768 156.264 32.48C156.691 32.1813 156.989 31.7867 157.16 31.296H158.728C158.493 32.1387 158.024 32.8267 157.32 33.36C156.616 33.8827 155.741 34.144 154.696 34.144C153.864 34.144 153.117 33.9573 152.456 33.584C151.805 33.2107 151.293 32.6827 150.92 32C150.547 31.3067 150.36 30.5067 150.36 29.6C150.36 28.6933 150.541 27.8987 150.904 27.216C151.267 26.5333 151.773 26.0107 152.424 25.648C153.085 25.2747 153.843 25.088 154.696 25.088C155.528 25.088 156.264 25.2693 156.904 25.632C157.544 25.9947 158.035 26.496 158.376 27.136C158.728 27.7653 158.904 28.48 158.904 29.28ZM157.4 28.976C157.4 28.4213 157.277 27.9467 157.032 27.552C156.787 27.1467 156.451 26.8427 156.024 26.64C155.608 26.4267 155.144 26.32 154.632 26.32C153.896 26.32 153.267 26.5547 152.744 27.024C152.232 27.4933 151.939 28.144 151.864 28.976H157.4ZM171.37 25.072C172.052 25.072 172.66 25.216 173.194 25.504C173.727 25.7813 174.148 26.2027 174.458 26.768C174.767 27.3333 174.922 28.0213 174.922 28.832V34H173.482V29.04C173.482 28.1653 173.263 27.4987 172.826 27.04C172.399 26.5707 171.818 26.336 171.082 26.336C170.324 26.336 169.722 26.5813 169.274 27.072C168.826 27.552 168.602 28.2507 168.602 29.168V34H167.162V29.04C167.162 28.1653 166.943 27.4987 166.506 27.04C166.079 26.5707 165.498 26.336 164.762 26.336C164.004 26.336 163.402 26.5813 162.954 27.072C162.506 27.552 162.282 28.2507 162.282 29.168V34H160.826V25.232H162.282V26.496C162.57 26.0373 162.954 25.6853 163.434 25.44C163.924 25.1947 164.463 25.072 165.05 25.072C165.786 25.072 166.436 25.2373 167.002 25.568C167.567 25.8987 167.988 26.384 168.266 27.024C168.511 26.4053 168.916 25.9253 169.482 25.584C170.047 25.2427 170.676 25.072 171.37 25.072ZM185.31 29.28C185.31 29.5573 185.294 29.8507 185.262 30.16H178.254C178.307 31.024 178.601 31.7013 179.134 32.192C179.678 32.672 180.334 32.912 181.102 32.912C181.731 32.912 182.254 32.768 182.67 32.48C183.097 32.1813 183.395 31.7867 183.566 31.296H185.134C184.899 32.1387 184.43 32.8267 183.726 33.36C183.022 33.8827 182.147 34.144 181.102 34.144C180.27 34.144 179.523 33.9573 178.862 33.584C178.211 33.2107 177.699 32.6827 177.326 32C176.953 31.3067 176.766 30.5067 176.766 29.6C176.766 28.6933 176.947 27.8987 177.31 27.216C177.673 26.5333 178.179 26.0107 178.83 25.648C179.491 25.2747 180.249 25.088 181.102 25.088C181.934 25.088 182.67 25.2693 183.31 25.632C183.95 25.9947 184.441 26.496 184.782 27.136C185.134 27.7653 185.31 28.48 185.31 29.28ZM183.806 28.976C183.806 28.4213 183.683 27.9467 183.438 27.552C183.193 27.1467 182.857 26.8427 182.43 26.64C182.014 26.4267 181.55 26.32 181.038 26.32C180.302 26.32 179.673 26.5547 179.15 27.024C178.638 27.4933 178.345 28.144 178.27 28.976H183.806ZM191.504 25.072C192.571 25.072 193.435 25.3973 194.096 26.048C194.757 26.688 195.088 27.616 195.088 28.832V34H193.648V29.04C193.648 28.1653 193.429 27.4987 192.992 27.04C192.555 26.5707 191.957 26.336 191.2 26.336C190.432 26.336 189.819 26.576 189.36 27.056C188.912 27.536 188.688 28.2347 188.688 29.152V34H187.232V25.232H188.688V26.48C188.976 26.032 189.365 25.6853 189.856 25.44C190.357 25.1947 190.907 25.072 191.504 25.072ZM199.242 26.432V31.6C199.242 32.0267 199.333 32.3307 199.514 32.512C199.696 32.6827 200.01 32.768 200.458 32.768H201.53V34H200.218C199.408 34 198.8 33.8133 198.394 33.44C197.989 33.0667 197.786 32.4533 197.786 31.6V26.432H196.65V25.232H197.786V23.024H199.242V25.232H201.53V26.432H199.242Z" fill="#686868"/>
</svg>
