<svg width="242" height="56" viewBox="0 0 242 56" fill="none" xmlns="http://www.w3.org/2000/svg">
<path d="M43.3703 36H40.0943C39.889 36 39.6899 35.9299 39.53 35.8012C39.37 35.6726 39.2589 35.4931 39.215 35.2926L38.8487 33.597C38.36 33.3829 37.8967 33.1151 37.4672 32.7987L35.8139 33.3252C35.6182 33.3876 35.407 33.3812 35.2155 33.307C35.0239 33.2329 34.8635 33.0954 34.7609 32.9175L33.1193 30.0816C33.0177 29.9035 32.9796 29.6962 33.0111 29.4937C33.0427 29.2911 33.142 29.1052 33.293 28.9665L34.5755 27.7965C34.5171 27.2665 34.5171 26.7317 34.5755 26.2017L33.293 25.0344C33.1418 24.8956 33.0423 24.7096 33.0108 24.5068C32.9792 24.304 33.0175 24.0966 33.1193 23.9184L34.7573 21.0807C34.8599 20.9028 35.0203 20.7653 35.2119 20.6912C35.4034 20.617 35.6146 20.6106 35.8103 20.673L37.4636 21.1995C37.6832 21.0375 37.9118 20.8863 38.1476 20.7495C38.3753 20.6217 38.6093 20.5056 38.8487 20.4021L39.2159 18.7083C39.2596 18.5078 39.3705 18.3282 39.5303 18.1994C39.69 18.0706 39.889 18.0002 40.0943 18H43.3703C43.5755 18.0002 43.7745 18.0706 43.9343 18.1994C44.094 18.3282 44.205 18.5078 44.2487 18.7083L44.6195 20.403C44.8715 20.5146 45.1181 20.6397 45.3566 20.7792C45.5789 20.9079 45.794 21.0492 46.001 21.2013L47.6552 20.6748C47.8507 20.6126 48.0617 20.6192 48.253 20.6933C48.4444 20.7675 48.6047 20.9048 48.7073 21.0825L50.3453 23.9202C50.5541 24.2865 50.4821 24.75 50.1716 25.0353L48.8891 26.2053C48.9474 26.7353 48.9474 27.2701 48.8891 27.8001L50.1716 28.9701C50.4821 29.2563 50.5541 29.7189 50.3453 30.0852L48.7073 32.9229C48.6046 33.1008 48.4442 33.2383 48.2527 33.3124C48.0611 33.3866 47.85 33.393 47.6543 33.3306L46.001 32.8041C45.5718 33.1203 45.1087 33.3878 44.6204 33.6015L44.2487 35.2926C44.2048 35.493 44.0938 35.6723 43.934 35.801C43.7743 35.9296 43.5754 35.9998 43.3703 36ZM41.7287 23.4C40.7739 23.4 39.8582 23.7793 39.1831 24.4544C38.508 25.1295 38.1287 26.0452 38.1287 27C38.1287 27.9548 38.508 28.8705 39.1831 29.5456C39.8582 30.2207 40.7739 30.6 41.7287 30.6C42.6834 30.6 43.5991 30.2207 44.2743 29.5456C44.9494 28.8705 45.3287 27.9548 45.3287 27C45.3287 26.0452 44.9494 25.1295 44.2743 24.4544C43.5991 23.7793 42.6834 23.4 41.7287 23.4Z" fill="#B2B2B2"/>
<path d="M82.768 34.112C82.032 34.112 81.3707 33.984 80.784 33.728C80.208 33.4613 79.7547 33.0987 79.424 32.64C79.0933 32.1707 78.9227 31.632 78.912 31.024H80.464C80.5173 31.5467 80.7307 31.9893 81.104 32.352C81.488 32.704 82.0427 32.88 82.768 32.88C83.4613 32.88 84.0053 32.7093 84.4 32.368C84.8053 32.016 85.008 31.568 85.008 31.024C85.008 30.5973 84.8907 30.2507 84.656 29.984C84.4213 29.7173 84.128 29.5147 83.776 29.376C83.424 29.2373 82.9493 29.088 82.352 28.928C81.616 28.736 81.024 28.544 80.576 28.352C80.1387 28.16 79.76 27.8613 79.44 27.456C79.1307 27.04 78.976 26.4853 78.976 25.792C78.976 25.184 79.1307 24.6453 79.44 24.176C79.7493 23.7067 80.1813 23.344 80.736 23.088C81.3013 22.832 81.9467 22.704 82.672 22.704C83.7173 22.704 84.5707 22.9653 85.232 23.488C85.904 24.0107 86.2827 24.704 86.368 25.568H84.768C84.7147 25.1413 84.4907 24.768 84.096 24.448C83.7013 24.1173 83.1787 23.952 82.528 23.952C81.92 23.952 81.424 24.112 81.04 24.432C80.656 24.7413 80.464 25.1787 80.464 25.744C80.464 26.1493 80.576 26.48 80.8 26.736C81.0347 26.992 81.3173 27.1893 81.648 27.328C81.9893 27.456 82.464 27.6053 83.072 27.776C83.808 27.9787 84.4 28.1813 84.848 28.384C85.296 28.576 85.68 28.88 86 29.296C86.32 29.7013 86.48 30.256 86.48 30.96C86.48 31.504 86.336 32.016 86.048 32.496C85.76 32.976 85.3333 33.3653 84.768 33.664C84.2027 33.9627 83.536 34.112 82.768 34.112ZM96.6226 29.28C96.6226 29.5573 96.6066 29.8507 96.5746 30.16H89.5666C89.62 31.024 89.9133 31.7013 90.4466 32.192C90.9906 32.672 91.6466 32.912 92.4146 32.912C93.044 32.912 93.5666 32.768 93.9826 32.48C94.4093 32.1813 94.708 31.7867 94.8786 31.296H96.4466C96.212 32.1387 95.7426 32.8267 95.0386 33.36C94.3346 33.8827 93.46 34.144 92.4146 34.144C91.5826 34.144 90.836 33.9573 90.1746 33.584C89.524 33.2107 89.012 32.6827 88.6386 32C88.2653 31.3067 88.0786 30.5067 88.0786 29.6C88.0786 28.6933 88.26 27.8987 88.6226 27.216C88.9853 26.5333 89.492 26.0107 90.1426 25.648C90.804 25.2747 91.5613 25.088 92.4146 25.088C93.2466 25.088 93.9826 25.2693 94.6226 25.632C95.2626 25.9947 95.7533 26.496 96.0946 27.136C96.4466 27.7653 96.6226 28.48 96.6226 29.28ZM95.1186 28.976C95.1186 28.4213 94.996 27.9467 94.7506 27.552C94.5053 27.1467 94.1693 26.8427 93.7426 26.64C93.3266 26.4267 92.8626 26.32 92.3506 26.32C91.6146 26.32 90.9853 26.5547 90.4626 27.024C89.9506 27.4933 89.6573 28.144 89.5826 28.976H95.1186ZM100.321 26.432V31.6C100.321 32.0267 100.411 32.3307 100.593 32.512C100.774 32.6827 101.089 32.768 101.536 32.768H102.609V34H101.297C100.486 34 99.8778 33.8133 99.4725 33.44C99.0672 33.0667 98.8645 32.4533 98.8645 31.6V26.432H97.7285V25.232H98.8645V23.024H100.321V25.232H102.609V26.432H100.321ZM106.149 26.432V31.6C106.149 32.0267 106.239 32.3307 106.421 32.512C106.602 32.6827 106.917 32.768 107.365 32.768H108.437V34H107.125C106.314 34 105.706 33.8133 105.301 33.44C104.895 33.0667 104.693 32.4533 104.693 31.6V26.432H103.557V25.232H104.693V23.024H106.149V25.232H108.437V26.432H106.149ZM110.953 23.808C110.675 23.808 110.441 23.712 110.249 23.52C110.057 23.328 109.961 23.0933 109.961 22.816C109.961 22.5387 110.057 22.304 110.249 22.112C110.441 21.92 110.675 21.824 110.953 21.824C111.219 21.824 111.443 21.92 111.625 22.112C111.817 22.304 111.913 22.5387 111.913 22.816C111.913 23.0933 111.817 23.328 111.625 23.52C111.443 23.712 111.219 23.808 110.953 23.808ZM111.657 25.232V34H110.201V25.232H111.657ZM118.41 25.072C119.477 25.072 120.341 25.3973 121.002 26.048C121.664 26.688 121.994 27.616 121.994 28.832V34H120.554V29.04C120.554 28.1653 120.336 27.4987 119.898 27.04C119.461 26.5707 118.864 26.336 118.106 26.336C117.338 26.336 116.725 26.576 116.266 27.056C115.818 27.536 115.594 28.2347 115.594 29.152V34H114.138V25.232H115.594V26.48C115.882 26.032 116.272 25.6853 116.762 25.44C117.264 25.1947 117.813 25.072 118.41 25.072ZM127.989 25.088C128.746 25.088 129.407 25.2533 129.973 25.584C130.549 25.9147 130.975 26.3307 131.253 26.832V25.232H132.725V34.192C132.725 34.992 132.554 35.7013 132.213 36.32C131.871 36.9493 131.381 37.44 130.741 37.792C130.111 38.144 129.375 38.32 128.533 38.32C127.381 38.32 126.421 38.048 125.653 37.504C124.885 36.96 124.431 36.2187 124.293 35.28H125.733C125.893 35.8133 126.223 36.24 126.725 36.56C127.226 36.8907 127.829 37.056 128.533 37.056C129.333 37.056 129.983 36.8053 130.485 36.304C130.997 35.8027 131.253 35.0987 131.253 34.192V32.352C130.965 32.864 130.538 33.2907 129.973 33.632C129.407 33.9733 128.746 34.144 127.989 34.144C127.21 34.144 126.501 33.952 125.861 33.568C125.231 33.184 124.735 32.6453 124.373 31.952C124.01 31.2587 123.829 30.4693 123.829 29.584C123.829 28.688 124.01 27.904 124.373 27.232C124.735 26.5493 125.231 26.0213 125.861 25.648C126.501 25.2747 127.21 25.088 127.989 25.088ZM131.253 29.6C131.253 28.9387 131.119 28.3627 130.853 27.872C130.586 27.3813 130.223 27.008 129.765 26.752C129.317 26.4853 128.821 26.352 128.277 26.352C127.733 26.352 127.237 26.48 126.789 26.736C126.341 26.992 125.983 27.3653 125.717 27.856C125.45 28.3467 125.317 28.9227 125.317 29.584C125.317 30.256 125.45 30.8427 125.717 31.344C125.983 31.8347 126.341 32.2133 126.789 32.48C127.237 32.736 127.733 32.864 128.277 32.864C128.821 32.864 129.317 32.736 129.765 32.48C130.223 32.2133 130.586 31.8347 130.853 31.344C131.119 30.8427 131.253 30.2613 131.253 29.6ZM138.289 34.144C137.617 34.144 137.014 34.032 136.481 33.808C135.948 33.5733 135.526 33.2533 135.217 32.848C134.908 32.432 134.737 31.9573 134.705 31.424H136.209C136.252 31.8613 136.454 32.2187 136.817 32.496C137.19 32.7733 137.676 32.912 138.273 32.912C138.828 32.912 139.265 32.7893 139.585 32.544C139.905 32.2987 140.065 31.9893 140.065 31.616C140.065 31.232 139.894 30.9493 139.553 30.768C139.212 30.576 138.684 30.3893 137.969 30.208C137.318 30.0373 136.785 29.8667 136.369 29.696C135.964 29.5147 135.612 29.2533 135.313 28.912C135.025 28.56 134.881 28.1013 134.881 27.536C134.881 27.088 135.014 26.6773 135.281 26.304C135.548 25.9307 135.926 25.6373 136.417 25.424C136.908 25.2 137.468 25.088 138.097 25.088C139.068 25.088 139.852 25.3333 140.449 25.824C141.046 26.3147 141.366 26.9867 141.409 27.84H139.953C139.921 27.3813 139.734 27.0133 139.393 26.736C139.062 26.4587 138.614 26.32 138.049 26.32C137.526 26.32 137.11 26.432 136.801 26.656C136.492 26.88 136.337 27.1733 136.337 27.536C136.337 27.824 136.428 28.064 136.609 28.256C136.801 28.4373 137.036 28.5867 137.313 28.704C137.601 28.8107 137.996 28.9333 138.497 29.072C139.126 29.2427 139.638 29.4133 140.033 29.584C140.428 29.744 140.764 29.9893 141.041 30.32C141.329 30.6507 141.478 31.0827 141.489 31.616C141.489 32.096 141.356 32.528 141.089 32.912C140.822 33.296 140.444 33.6 139.953 33.824C139.473 34.0373 138.918 34.144 138.289 34.144Z" fill="#686868"/>
</svg>
