<svg width="242" height="38" viewBox="0 0 242 38" fill="none" xmlns="http://www.w3.org/2000/svg">
<path opacity="0.5" d="M37.6758 18.957C37.6758 19.793 37.5312 20.5273 37.2422 21.1602C36.9531 21.7891 36.5391 22.2734 36 22.6133C35.4648 22.9492 34.8477 23.1172 34.1484 23.1172C33.457 23.1172 32.8398 22.9492 32.2969 22.6133C31.7578 22.2734 31.3398 21.791 31.043 21.166C30.75 20.541 30.6016 19.8203 30.5977 19.0039V18.5234C30.5977 17.6914 30.7441 16.957 31.0371 16.3203C31.334 15.6836 31.75 15.1973 32.2852 14.8613C32.8242 14.5215 33.4414 14.3516 34.1367 14.3516C34.832 14.3516 35.4473 14.5195 35.9824 14.8555C36.5215 15.1875 36.9375 15.668 37.2305 16.2969C37.5234 16.9219 37.6719 17.6504 37.6758 18.4824V18.957ZM36.1934 18.5117C36.1934 17.5664 36.0137 16.8418 35.6543 16.3379C35.2988 15.834 34.793 15.582 34.1367 15.582C33.4961 15.582 32.9941 15.834 32.6309 16.3379C32.2715 16.8379 32.0879 17.5469 32.0801 18.4648V18.957C32.0801 19.8945 32.2617 20.6191 32.625 21.1309C32.9922 21.6426 33.5 21.8984 34.1484 21.8984C34.8047 21.8984 35.3086 21.6484 35.6602 21.1484C36.0156 20.6484 36.1934 19.918 36.1934 18.957V18.5117ZM44.8125 15.6641H42.1523V23H40.6816V15.6641H38.0449V14.4688H44.8125V15.6641ZM52.7109 23H51.2344V19.209H47.4199V23H45.9375V14.4688H47.4199V18.0195H51.2344V14.4688H52.7109V23ZM59.4551 19.1914H55.9512V21.8164H60.0469V23H54.4688V14.4688H60.0059V15.6641H55.9512V18.0195H59.4551V19.1914ZM64.3887 19.7129H62.7363V23H61.2539V14.4688H64.2539C65.2383 14.4688 65.998 14.6895 66.5332 15.1309C67.0684 15.5723 67.3359 16.2109 67.3359 17.0469C67.3359 17.6172 67.1973 18.0957 66.9199 18.4824C66.6465 18.8652 66.2637 19.1602 65.7715 19.3672L67.6875 22.9238V23H66.0996L64.3887 19.7129ZM62.7363 18.5234H64.2598C64.7598 18.5234 65.1504 18.3984 65.4316 18.1484C65.7129 17.8945 65.8535 17.5488 65.8535 17.1113C65.8535 16.6543 65.7227 16.3008 65.4609 16.0508C65.2031 15.8008 64.8164 15.6719 64.3008 15.6641H62.7363V18.5234Z" fill="#686868"/>
</svg>
