<svg width="242" height="56" viewBox="0 0 242 56" fill="none" xmlns="http://www.w3.org/2000/svg">
<path d="M35 24C35 24.7911 35.2346 25.5645 35.6741 26.2223C36.1136 26.8801 36.7384 27.3928 37.4693 27.6955C38.2002 27.9983 39.0044 28.0775 39.7804 27.9231C40.5563 27.7688 41.269 27.3878 41.8284 26.8284C42.3878 26.269 42.7688 25.5563 42.9231 24.7804C43.0775 24.0044 42.9983 23.2002 42.6955 22.4693C42.3928 21.7384 41.8801 21.1136 41.2223 20.6741C40.5645 20.2346 39.7911 20 39 20C37.9391 20 36.9217 20.4214 36.1716 21.1716C35.4214 21.9217 35 22.9391 35 24Z" fill="#B2B2B2"/>
<rect x="33" y="30" width="12" height="6" rx="3" fill="#B2B2B2"/>
<path fill-rule="evenodd" clip-rule="evenodd" d="M49 24H47V26L45 26V28H47V30H49V28H51V26L49 26V24Z" fill="#B2B2B2"/>
<path d="M80.688 24.032V27.76H84.752V28.96H80.688V32.8H85.232V34H79.232V22.832H85.232V24.032H80.688ZM97.9791 25.072C98.6618 25.072 99.2698 25.216 99.8031 25.504C100.336 25.7813 100.758 26.2027 101.067 26.768C101.376 27.3333 101.531 28.0213 101.531 28.832V34H100.091V29.04C100.091 28.1653 99.8725 27.4987 99.4351 27.04C99.0085 26.5707 98.4271 26.336 97.6911 26.336C96.9338 26.336 96.3311 26.5813 95.8831 27.072C95.4351 27.552 95.2111 28.2507 95.2111 29.168V34H93.7711V29.04C93.7711 28.1653 93.5525 27.4987 93.1151 27.04C92.6885 26.5707 92.1071 26.336 91.3711 26.336C90.6138 26.336 90.0111 26.5813 89.5631 27.072C89.1151 27.552 88.8911 28.2507 88.8911 29.168V34H87.4351V25.232H88.8911V26.496C89.1791 26.0373 89.5631 25.6853 90.0431 25.44C90.5338 25.1947 91.0725 25.072 91.6591 25.072C92.3951 25.072 93.0458 25.2373 93.6111 25.568C94.1765 25.8987 94.5978 26.384 94.8751 27.024C95.1205 26.4053 95.5258 25.9253 96.0911 25.584C96.6565 25.2427 97.2858 25.072 97.9791 25.072ZM105.376 26.848C105.664 26.3467 106.09 25.9307 106.656 25.6C107.232 25.2587 107.898 25.088 108.656 25.088C109.434 25.088 110.138 25.2747 110.767 25.648C111.407 26.0213 111.909 26.5493 112.272 27.232C112.634 27.904 112.816 28.688 112.816 29.584C112.816 30.4693 112.634 31.2587 112.272 31.952C111.909 32.6453 111.407 33.184 110.767 33.568C110.138 33.952 109.434 34.144 108.656 34.144C107.909 34.144 107.248 33.9787 106.672 33.648C106.106 33.3067 105.674 32.8853 105.376 32.384V38.16H103.92V25.232H105.376V26.848ZM111.328 29.584C111.328 28.9227 111.194 28.3467 110.928 27.856C110.661 27.3653 110.298 26.992 109.84 26.736C109.392 26.48 108.896 26.352 108.352 26.352C107.818 26.352 107.322 26.4853 106.864 26.752C106.416 27.008 106.053 27.3867 105.776 27.888C105.509 28.3787 105.376 28.9493 105.376 29.6C105.376 30.2613 105.509 30.8427 105.776 31.344C106.053 31.8347 106.416 32.2133 106.864 32.48C107.322 32.736 107.818 32.864 108.352 32.864C108.896 32.864 109.392 32.736 109.84 32.48C110.298 32.2133 110.661 31.8347 110.928 31.344C111.194 30.8427 111.328 30.256 111.328 29.584ZM116.188 22.16V34H114.732V22.16H116.188ZM122.494 34.144C121.672 34.144 120.926 33.9573 120.254 33.584C119.592 33.2107 119.07 32.6827 118.686 32C118.312 31.3067 118.126 30.5067 118.126 29.6C118.126 28.704 118.318 27.9147 118.702 27.232C119.096 26.5387 119.63 26.0107 120.302 25.648C120.974 25.2747 121.726 25.088 122.558 25.088C123.39 25.088 124.142 25.2747 124.814 25.648C125.486 26.0107 126.014 26.5333 126.398 27.216C126.792 27.8987 126.99 28.6933 126.99 29.6C126.99 30.5067 126.787 31.3067 126.382 32C125.987 32.6827 125.448 33.2107 124.766 33.584C124.083 33.9573 123.326 34.144 122.494 34.144ZM122.494 32.864C123.016 32.864 123.507 32.7413 123.966 32.496C124.424 32.2507 124.792 31.8827 125.07 31.392C125.358 30.9013 125.502 30.304 125.502 29.6C125.502 28.896 125.363 28.2987 125.086 27.808C124.808 27.3173 124.446 26.9547 123.998 26.72C123.55 26.4747 123.064 26.352 122.542 26.352C122.008 26.352 121.518 26.4747 121.07 26.72C120.632 26.9547 120.28 27.3173 120.014 27.808C119.747 28.2987 119.614 28.896 119.614 29.6C119.614 30.3147 119.742 30.9173 119.998 31.408C120.264 31.8987 120.616 32.2667 121.054 32.512C121.491 32.7467 121.971 32.864 122.494 32.864ZM136.456 25.232L131.176 38.128H129.672L131.4 33.904L127.864 25.232H129.48L132.232 32.336L134.952 25.232H136.456ZM145.92 29.28C145.92 29.5573 145.904 29.8507 145.872 30.16H138.864C138.917 31.024 139.21 31.7013 139.744 32.192C140.288 32.672 140.944 32.912 141.712 32.912C142.341 32.912 142.864 32.768 143.28 32.48C143.706 32.1813 144.005 31.7867 144.176 31.296H145.744C145.509 32.1387 145.04 32.8267 144.336 33.36C143.632 33.8827 142.757 34.144 141.712 34.144C140.88 34.144 140.133 33.9573 139.472 33.584C138.821 33.2107 138.309 32.6827 137.936 32C137.562 31.3067 137.376 30.5067 137.376 29.6C137.376 28.6933 137.557 27.8987 137.92 27.216C138.282 26.5333 138.789 26.0107 139.44 25.648C140.101 25.2747 140.858 25.088 141.712 25.088C142.544 25.088 143.28 25.2693 143.92 25.632C144.56 25.9947 145.05 26.496 145.392 27.136C145.744 27.7653 145.92 28.48 145.92 29.28ZM144.416 28.976C144.416 28.4213 144.293 27.9467 144.048 27.552C143.802 27.1467 143.466 26.8427 143.04 26.64C142.624 26.4267 142.16 26.32 141.648 26.32C140.912 26.32 140.282 26.5547 139.76 27.024C139.248 27.4933 138.954 28.144 138.88 28.976H144.416ZM155.841 29.28C155.841 29.5573 155.825 29.8507 155.793 30.16H148.785C148.839 31.024 149.132 31.7013 149.665 32.192C150.209 32.672 150.865 32.912 151.633 32.912C152.263 32.912 152.785 32.768 153.201 32.48C153.628 32.1813 153.927 31.7867 154.097 31.296H155.665C155.431 32.1387 154.961 32.8267 154.257 33.36C153.553 33.8827 152.679 34.144 151.633 34.144C150.801 34.144 150.055 33.9573 149.393 33.584C148.743 33.2107 148.231 32.6827 147.857 32C147.484 31.3067 147.297 30.5067 147.297 29.6C147.297 28.6933 147.479 27.8987 147.841 27.216C148.204 26.5333 148.711 26.0107 149.361 25.648C150.023 25.2747 150.78 25.088 151.633 25.088C152.465 25.088 153.201 25.2693 153.841 25.632C154.481 25.9947 154.972 26.496 155.313 27.136C155.665 27.7653 155.841 28.48 155.841 29.28ZM154.337 28.976C154.337 28.4213 154.215 27.9467 153.969 27.552C153.724 27.1467 153.388 26.8427 152.961 26.64C152.545 26.4267 152.081 26.32 151.569 26.32C150.833 26.32 150.204 26.5547 149.681 27.024C149.169 27.4933 148.876 28.144 148.801 28.976H154.337Z" fill="#686868"/>
</svg>
