<svg width="242" height="56" viewBox="0 0 242 56" fill="none" xmlns="http://www.w3.org/2000/svg">
<path d="M33 29H41V19H33V29ZM33 37H41V31H33V37ZM43 37H51V27H43V37ZM43 19V25H51V19H43Z" fill="#E9374A"/>
<path d="M82.832 22.88C84.016 22.88 85.0507 23.1093 85.936 23.568C86.832 24.016 87.52 24.6667 88 25.52C88.4907 26.3627 88.736 27.3493 88.736 28.48C88.736 29.6107 88.4907 30.592 88 31.424C87.52 32.256 86.832 32.896 85.936 33.344C85.0507 33.7813 84.016 34 82.832 34H79.2V22.88H82.832ZM82.832 32.512C84.1333 32.512 85.1307 32.16 85.824 31.456C86.5173 30.752 86.864 29.76 86.864 28.48C86.864 27.1893 86.5173 26.1813 85.824 25.456C85.1307 24.7307 84.1333 24.368 82.832 24.368H81.024V32.512H82.832ZM89.9358 29.552C89.9358 28.6667 90.1171 27.8827 90.4798 27.2C90.8531 26.5173 91.3544 25.9893 91.9838 25.616C92.6238 25.232 93.3278 25.04 94.0958 25.04C94.7891 25.04 95.3918 25.1787 95.9038 25.456C96.4264 25.7227 96.8424 26.0587 97.1518 26.464V25.184H98.9918V34H97.1518V32.688C96.8424 33.104 96.4211 33.4507 95.8878 33.728C95.3544 34.0053 94.7464 34.144 94.0638 34.144C93.3064 34.144 92.6131 33.952 91.9838 33.568C91.3544 33.1733 90.8531 32.6293 90.4798 31.936C90.1171 31.232 89.9358 30.4373 89.9358 29.552ZM97.1518 29.584C97.1518 28.976 97.0238 28.448 96.7678 28C96.5224 27.552 96.1971 27.2107 95.7918 26.976C95.3864 26.7413 94.9491 26.624 94.4798 26.624C94.0104 26.624 93.5731 26.7413 93.1678 26.976C92.7624 27.2 92.4318 27.536 92.1758 27.984C91.9304 28.4213 91.8078 28.944 91.8078 29.552C91.8078 30.16 91.9304 30.6933 92.1758 31.152C92.4318 31.6107 92.7624 31.9627 93.1678 32.208C93.5838 32.4427 94.0211 32.56 94.4798 32.56C94.9491 32.56 95.3864 32.4427 95.7918 32.208C96.1971 31.9733 96.5224 31.632 96.7678 31.184C97.0238 30.7253 97.1518 30.192 97.1518 29.584ZM104.588 34.144C103.894 34.144 103.27 34.0213 102.716 33.776C102.172 33.52 101.74 33.1787 101.42 32.752C101.1 32.3147 100.929 31.8293 100.908 31.296H102.796C102.828 31.6693 103.004 31.984 103.324 32.24C103.654 32.4853 104.065 32.608 104.556 32.608C105.068 32.608 105.462 32.512 105.74 32.32C106.028 32.1173 106.172 31.8613 106.172 31.552C106.172 31.2213 106.012 30.976 105.692 30.816C105.382 30.656 104.886 30.48 104.204 30.288C103.542 30.1067 103.004 29.9307 102.588 29.76C102.172 29.5893 101.809 29.328 101.5 28.976C101.201 28.624 101.052 28.16 101.052 27.584C101.052 27.1147 101.19 26.688 101.468 26.304C101.745 25.9093 102.14 25.6 102.652 25.376C103.174 25.152 103.772 25.04 104.444 25.04C105.446 25.04 106.252 25.296 106.86 25.808C107.478 26.3093 107.809 26.9973 107.852 27.872H106.028C105.996 27.4773 105.836 27.1627 105.548 26.928C105.26 26.6933 104.87 26.576 104.38 26.576C103.9 26.576 103.532 26.6667 103.276 26.848C103.02 27.0293 102.892 27.2693 102.892 27.568C102.892 27.8027 102.977 28 103.148 28.16C103.318 28.32 103.526 28.448 103.772 28.544C104.017 28.6293 104.38 28.7413 104.86 28.88C105.5 29.0507 106.022 29.2267 106.428 29.408C106.844 29.5787 107.201 29.8347 107.5 30.176C107.798 30.5173 107.953 30.9707 107.964 31.536C107.964 32.0373 107.825 32.4853 107.548 32.88C107.27 33.2747 106.876 33.584 106.364 33.808C105.862 34.032 105.27 34.144 104.588 34.144ZM114.494 25.04C115.166 25.04 115.764 25.184 116.286 25.472C116.82 25.76 117.236 26.1867 117.534 26.752C117.844 27.3173 117.998 28 117.998 28.8V34H116.19V29.072C116.19 28.2827 115.993 27.68 115.598 27.264C115.204 26.8373 114.665 26.624 113.982 26.624C113.3 26.624 112.756 26.8373 112.35 27.264C111.956 27.68 111.758 28.2827 111.758 29.072V34H109.934V22.16H111.758V26.208C112.068 25.8347 112.457 25.5467 112.926 25.344C113.406 25.1413 113.929 25.04 114.494 25.04ZM122.149 26.496C122.458 26.0693 122.88 25.7227 123.413 25.456C123.957 25.1787 124.56 25.04 125.221 25.04C126 25.04 126.704 25.2267 127.333 25.6C127.962 25.9733 128.458 26.5067 128.821 27.2C129.184 27.8827 129.365 28.6667 129.365 29.552C129.365 30.4373 129.184 31.232 128.821 31.936C128.458 32.6293 127.957 33.1733 127.317 33.568C126.688 33.952 125.989 34.144 125.221 34.144C124.538 34.144 123.93 34.0107 123.397 33.744C122.874 33.4773 122.458 33.136 122.149 32.72V34H120.325V22.16H122.149V26.496ZM127.509 29.552C127.509 28.944 127.381 28.4213 127.125 27.984C126.88 27.536 126.549 27.2 126.133 26.976C125.728 26.7413 125.29 26.624 124.821 26.624C124.362 26.624 123.925 26.7413 123.509 26.976C123.104 27.2107 122.773 27.552 122.517 28C122.272 28.448 122.149 28.976 122.149 29.584C122.149 30.192 122.272 30.7253 122.517 31.184C122.773 31.632 123.104 31.9733 123.509 32.208C123.925 32.4427 124.362 32.56 124.821 32.56C125.29 32.56 125.728 32.4427 126.133 32.208C126.549 31.9627 126.88 31.6107 127.125 31.152C127.381 30.6933 127.509 30.16 127.509 29.552ZM134.993 34.144C134.161 34.144 133.409 33.9573 132.737 33.584C132.065 33.2 131.537 32.6667 131.153 31.984C130.769 31.2907 130.577 30.4907 130.577 29.584C130.577 28.688 130.774 27.8933 131.169 27.2C131.563 26.5067 132.102 25.9733 132.785 25.6C133.467 25.2267 134.23 25.04 135.073 25.04C135.915 25.04 136.678 25.2267 137.361 25.6C138.043 25.9733 138.582 26.5067 138.977 27.2C139.371 27.8933 139.569 28.688 139.569 29.584C139.569 30.48 139.366 31.2747 138.961 31.968C138.555 32.6613 138.001 33.2 137.297 33.584C136.603 33.9573 135.835 34.144 134.993 34.144ZM134.993 32.56C135.462 32.56 135.899 32.448 136.305 32.224C136.721 32 137.057 31.664 137.313 31.216C137.569 30.768 137.697 30.224 137.697 29.584C137.697 28.944 137.574 28.4053 137.329 27.968C137.083 27.52 136.758 27.184 136.353 26.96C135.947 26.736 135.51 26.624 135.041 26.624C134.571 26.624 134.134 26.736 133.729 26.96C133.334 27.184 133.019 27.52 132.785 27.968C132.55 28.4053 132.433 28.944 132.433 29.584C132.433 30.5333 132.673 31.2693 133.153 31.792C133.643 32.304 134.257 32.56 134.993 32.56ZM140.764 29.552C140.764 28.6667 140.945 27.8827 141.308 27.2C141.681 26.5173 142.183 25.9893 142.812 25.616C143.452 25.232 144.156 25.04 144.924 25.04C145.617 25.04 146.22 25.1787 146.732 25.456C147.255 25.7227 147.671 26.0587 147.98 26.464V25.184H149.82V34H147.98V32.688C147.671 33.104 147.249 33.4507 146.716 33.728C146.183 34.0053 145.575 34.144 144.892 34.144C144.135 34.144 143.441 33.952 142.812 33.568C142.183 33.1733 141.681 32.6293 141.308 31.936C140.945 31.232 140.764 30.4373 140.764 29.552ZM147.98 29.584C147.98 28.976 147.852 28.448 147.596 28C147.351 27.552 147.025 27.2107 146.62 26.976C146.215 26.7413 145.777 26.624 145.308 26.624C144.839 26.624 144.401 26.7413 143.996 26.976C143.591 27.2 143.26 27.536 143.004 27.984C142.759 28.4213 142.636 28.944 142.636 29.552C142.636 30.16 142.759 30.6933 143.004 31.152C143.26 31.6107 143.591 31.9627 143.996 32.208C144.412 32.4427 144.849 32.56 145.308 32.56C145.777 32.56 146.215 32.4427 146.62 32.208C147.025 31.9733 147.351 31.632 147.596 31.184C147.852 30.7253 147.98 30.192 147.98 29.584ZM154.04 26.464C154.306 26.016 154.658 25.6693 155.096 25.424C155.544 25.168 156.072 25.04 156.68 25.04V26.928H156.216C155.501 26.928 154.957 27.1093 154.584 27.472C154.221 27.8347 154.04 28.464 154.04 29.36V34H152.216V25.184H154.04V26.464ZM157.748 29.552C157.748 28.6667 157.93 27.8827 158.292 27.2C158.666 26.5173 159.167 25.9893 159.796 25.616C160.436 25.232 161.146 25.04 161.924 25.04C162.5 25.04 163.066 25.168 163.62 25.424C164.186 25.6693 164.634 26 164.964 26.416V22.16H166.804V34H164.964V32.672C164.666 33.0987 164.25 33.4507 163.716 33.728C163.194 34.0053 162.591 34.144 161.908 34.144C161.14 34.144 160.436 33.952 159.796 33.568C159.167 33.1733 158.666 32.6293 158.292 31.936C157.93 31.232 157.748 30.4373 157.748 29.552ZM164.964 29.584C164.964 28.976 164.836 28.448 164.58 28C164.335 27.552 164.01 27.2107 163.604 26.976C163.199 26.7413 162.762 26.624 162.292 26.624C161.823 26.624 161.386 26.7413 160.98 26.976C160.575 27.2 160.244 27.536 159.988 27.984C159.743 28.4213 159.62 28.944 159.62 29.552C159.62 30.16 159.743 30.6933 159.988 31.152C160.244 31.6107 160.575 31.9627 160.98 32.208C161.396 32.4427 161.834 32.56 162.292 32.56C162.762 32.56 163.199 32.4427 163.604 32.208C164.01 31.9733 164.335 31.632 164.58 31.184C164.836 30.7253 164.964 30.192 164.964 29.584Z" fill="#E9374A"/>
</svg>
