<svg width="242" height="56" viewBox="0 0 242 56" fill="none" xmlns="http://www.w3.org/2000/svg">
<path d="M43 24C43 24.7956 42.6839 25.5587 42.1213 26.1213C41.5587 26.6839 40.7956 27 40 27C39.2044 27 38.4413 26.6839 37.8787 26.1213C37.3161 25.5587 37 24.7956 37 24C37 23.2044 37.3161 22.4413 37.8787 21.8787C38.4413 21.3161 39.2044 21 40 21C40.7956 21 41.5587 21.3161 42.1213 21.8787C42.6839 22.4413 43 23.2044 43 24Z" fill="#B2B2B2"/>
<path d="M48 26C48 26.5304 47.7893 27.0391 47.4142 27.4142C47.0391 27.7893 46.5304 28 46 28C45.4696 28 44.9609 27.7893 44.5858 27.4142C44.2107 27.0391 44 26.5304 44 26C44 25.4696 44.2107 24.9609 44.5858 24.5858C44.9609 24.2107 45.4696 24 46 24C46.5304 24 47.0391 24.2107 47.4142 24.5858C47.7893 24.9609 48 25.4696 48 26Z" fill="#B2B2B2"/>
<path d="M36 26C36 26.5304 35.7893 27.0391 35.4142 27.4142C35.0391 27.7893 34.5304 28 34 28C33.4696 28 32.9609 27.7893 32.5858 27.4142C32.2107 27.0391 32 26.5304 32 26C32 25.4696 32.2107 24.9609 32.5858 24.5858C32.9609 24.2107 33.4696 24 34 24C34.5304 24 35.0391 24.2107 35.4142 24.5858C35.7893 24.9609 36 25.4696 36 26Z" fill="#B2B2B2"/>
<path d="M46 36V33C46.0014 31.9833 45.7433 30.983 45.25 30.094C45.6933 29.9805 46.1568 29.9698 46.6049 30.0627C47.053 30.1556 47.474 30.3496 47.8357 30.6299C48.1974 30.9102 48.4903 31.2695 48.6921 31.6802C48.8939 32.091 48.9992 32.5424 49 33V36H46Z" fill="#B2B2B2"/>
<path d="M34.75 30.094C34.2567 30.983 33.9986 31.9833 34 33V36H31V33C30.9998 32.542 31.1045 32.0901 31.3059 31.6788C31.5074 31.2676 31.8004 30.9079 32.1624 30.6274C32.5244 30.3469 32.9458 30.153 33.3943 30.0605C33.8428 29.968 34.3066 29.9795 34.75 30.094Z" fill="#B2B2B2"/>
<rect x="36" y="29" width="8" height="7" rx="3" fill="#B2B2B2"/>
<path d="M82.688 26.112C82.688 27.04 82.368 27.8133 81.728 28.432C81.0987 29.04 80.1333 29.344 78.832 29.344H76.688V34H75.232V22.848H78.832C80.0907 22.848 81.0453 23.152 81.696 23.76C82.3573 24.368 82.688 25.152 82.688 26.112ZM78.832 28.144C79.6427 28.144 80.24 27.968 80.624 27.616C81.008 27.264 81.2 26.7627 81.2 26.112C81.2 24.736 80.4107 24.048 78.832 24.048H76.688V28.144H78.832ZM83.9536 29.584C83.9536 28.688 84.135 27.904 84.4976 27.232C84.8603 26.5493 85.3563 26.0213 85.9856 25.648C86.6256 25.2747 87.335 25.088 88.1136 25.088C88.8816 25.088 89.5483 25.2533 90.1136 25.584C90.679 25.9147 91.1003 26.3307 91.3776 26.832V25.232H92.8496V34H91.3776V32.368C91.0896 32.88 90.6576 33.3067 90.0816 33.648C89.5163 33.9787 88.855 34.144 88.0976 34.144C87.319 34.144 86.615 33.952 85.9856 33.568C85.3563 33.184 84.8603 32.6453 84.4976 31.952C84.135 31.2587 83.9536 30.4693 83.9536 29.584ZM91.3776 29.6C91.3776 28.9387 91.2443 28.3627 90.9776 27.872C90.711 27.3813 90.3483 27.008 89.8896 26.752C89.4416 26.4853 88.9456 26.352 88.4016 26.352C87.8576 26.352 87.3616 26.48 86.9136 26.736C86.4656 26.992 86.1083 27.3653 85.8416 27.856C85.575 28.3467 85.4416 28.9227 85.4416 29.584C85.4416 30.256 85.575 30.8427 85.8416 31.344C86.1083 31.8347 86.4656 32.2133 86.9136 32.48C87.3616 32.736 87.8576 32.864 88.4016 32.864C88.9456 32.864 89.4416 32.736 89.8896 32.48C90.3483 32.2133 90.711 31.8347 90.9776 31.344C91.2443 30.8427 91.3776 30.2613 91.3776 29.6ZM102.862 25.232L97.5821 38.128H96.0781L97.8061 33.904L94.2701 25.232H95.8861L98.6381 32.336L101.358 25.232H102.862ZM110.198 34L107.542 29.44H105.782V34H104.326V22.848H107.926C108.768 22.848 109.478 22.992 110.054 23.28C110.64 23.568 111.078 23.9573 111.366 24.448C111.654 24.9387 111.798 25.4987 111.798 26.128C111.798 26.896 111.574 27.5733 111.126 28.16C110.688 28.7467 110.027 29.136 109.142 29.328L111.942 34H110.198ZM105.782 28.272H107.926C108.715 28.272 109.307 28.08 109.702 27.696C110.096 27.3013 110.294 26.7787 110.294 26.128C110.294 25.4667 110.096 24.9547 109.702 24.592C109.318 24.2293 108.726 24.048 107.926 24.048H105.782V28.272ZM117.884 34.144C117.063 34.144 116.316 33.9573 115.644 33.584C114.983 33.2107 114.46 32.6827 114.076 32C113.703 31.3067 113.516 30.5067 113.516 29.6C113.516 28.704 113.708 27.9147 114.092 27.232C114.487 26.5387 115.02 26.0107 115.692 25.648C116.364 25.2747 117.116 25.088 117.948 25.088C118.78 25.088 119.532 25.2747 120.204 25.648C120.876 26.0107 121.404 26.5333 121.788 27.216C122.183 27.8987 122.38 28.6933 122.38 29.6C122.38 30.5067 122.177 31.3067 121.772 32C121.377 32.6827 120.839 33.2107 120.156 33.584C119.473 33.9573 118.716 34.144 117.884 34.144ZM117.884 32.864C118.407 32.864 118.897 32.7413 119.356 32.496C119.815 32.2507 120.183 31.8827 120.46 31.392C120.748 30.9013 120.892 30.304 120.892 29.6C120.892 28.896 120.753 28.2987 120.476 27.808C120.199 27.3173 119.836 26.9547 119.388 26.72C118.94 26.4747 118.455 26.352 117.932 26.352C117.399 26.352 116.908 26.4747 116.46 26.72C116.023 26.9547 115.671 27.3173 115.404 27.808C115.137 28.2987 115.004 28.896 115.004 29.6C115.004 30.3147 115.132 30.9173 115.388 31.408C115.655 31.8987 116.007 32.2667 116.444 32.512C116.881 32.7467 117.361 32.864 117.884 32.864ZM125.751 22.16V34H124.295V22.16H125.751ZM129.688 22.16V34H128.232V22.16H129.688Z" fill="#686868"/>
</svg>
